<svg width="61" height="34" viewBox="0 0 61 34" fill="none" xmlns="http://www.w3.org/2000/svg">
<path d="M43.1999 16.2417C43.1404 16.7907 43.5373 17.2841 44.0864 17.3436C44.6354 17.4031 45.1288 17.0062 45.1883 16.4572L43.1999 16.2417ZM53.2943 5.28806L52.8734 4.38094L52.8733 4.38096L53.2943 5.28806ZM59.0684 3.79759L59.0491 2.79777L59.0491 2.79777L59.0684 3.79759ZM45.6187 2.75877L45.5309 3.7549V3.7549L45.6187 2.75877ZM41.7289 0.548593C41.3113 0.187143 40.6798 0.232646 40.3184 0.650225C39.9569 1.06781 40.0024 1.69933 40.42 2.06078L41.7289 0.548593ZM53.6909 4.65167C54.243 4.63796 54.6795 4.17928 54.6658 3.62716C54.6521 3.07505 54.1934 2.63858 53.6413 2.65228L53.6909 4.65167ZM18.6894 12.1741L18.1244 11.349L18.6894 12.1741ZM0.614818 31.8044C0.328304 32.2766 0.478795 32.8916 0.950948 33.1781C1.4231 33.4646 2.03812 33.3141 2.32463 32.842L0.614818 31.8044ZM45.1883 16.4572C45.4144 14.3708 46.536 12.2663 48.1507 10.4238C49.7605 8.58688 51.7961 7.08564 53.7152 6.19516L52.8733 4.38096C50.6935 5.39244 48.4344 7.0656 46.6466 9.10568C44.8636 11.1403 43.4846 13.6154 43.1999 16.2417L45.1883 16.4572ZM53.7151 6.19517C54.0633 6.03365 54.6837 5.85239 55.4636 5.67074C56.2213 5.49424 57.0543 5.3339 57.7858 5.19782C58.4928 5.06628 59.1498 4.94975 59.4881 4.86986C59.5672 4.85118 59.6808 4.82288 59.7828 4.78419C59.801 4.77728 59.9683 4.71896 60.1238 4.58259C60.1903 4.5242 60.4466 4.28809 60.4679 3.87448C60.493 3.38628 60.1833 3.1 60.0443 3.0012C59.9065 2.90332 59.7768 2.86366 59.7301 2.8501C59.6683 2.83216 59.6149 2.82261 59.5808 2.81733C59.5121 2.8067 59.4472 2.80231 59.3995 2.79999C59.3003 2.79516 59.1804 2.79524 59.0491 2.79777L59.0878 4.7974C59.205 4.79514 59.2714 4.79612 59.3024 4.79763C59.3198 4.79848 59.3059 4.7986 59.275 4.79381C59.2597 4.79146 59.2219 4.78516 59.1724 4.77079C59.1381 4.76081 59.0174 4.72505 58.8856 4.63139C58.7525 4.53681 58.4456 4.25508 58.4705 3.77173C58.4915 3.36299 58.7445 3.13205 58.8048 3.07915C58.8925 3.00218 58.9723 2.96081 58.9992 2.9472C59.0347 2.92923 59.0621 2.91852 59.0735 2.91418C59.1047 2.90236 59.103 2.90579 59.0284 2.9234C58.7522 2.98864 58.1795 3.09026 57.42 3.23155C56.6849 3.36831 55.8143 3.53549 55.0098 3.72289C54.2274 3.90514 53.4269 4.12414 52.8734 4.38094L53.7151 6.19517ZM59.0491 2.79777C54.6449 2.88291 50.2788 2.16604 45.7066 1.76264L45.5309 3.7549C49.9033 4.14068 54.543 4.88525 59.0878 4.7974L59.0491 2.79777ZM45.7066 1.76264C44.0724 1.61845 42.702 1.39089 41.7289 0.548593L40.42 2.06078C41.9379 3.37468 43.9367 3.61424 45.5309 3.7549L45.7066 1.76264ZM53.6661 3.65197C53.6413 2.65228 53.641 2.65229 53.6407 2.6523C53.6405 2.6523 53.64 2.65231 53.6396 2.65232C53.6387 2.65235 53.6374 2.65238 53.6357 2.65242C53.6325 2.65251 53.6278 2.65263 53.6217 2.6528C53.6096 2.65313 53.5918 2.65363 53.5686 2.65433C53.5223 2.65572 53.4541 2.6579 53.3652 2.66106C53.1874 2.66738 52.9267 2.67765 52.5917 2.69353C51.9216 2.7253 50.9539 2.77952 49.7573 2.86953C47.3652 3.04946 44.0534 3.37278 40.3739 3.94673C33.0599 5.08763 24.1223 7.24277 18.1244 11.349L19.2543 12.9993C24.8572 9.16345 33.4079 7.05752 40.6821 5.92284C44.2967 5.35901 47.5539 5.04092 49.9073 4.86389C51.0835 4.77542 52.0327 4.72228 52.6864 4.69129C53.0131 4.6758 53.266 4.66585 53.4363 4.6598C53.5214 4.65677 53.5859 4.65471 53.6287 4.65343C53.6501 4.65279 53.6661 4.65233 53.6765 4.65205C53.6817 4.65191 53.6855 4.6518 53.6879 4.65174C53.6891 4.65171 53.69 4.65169 53.6905 4.65168C53.6907 4.65167 53.6908 4.65167 53.691 4.65166C53.691 4.65166 53.6909 4.65167 53.6661 3.65197ZM18.1244 11.349C13.7112 14.3704 9.32507 19.5203 6.07735 23.8405C4.44387 26.0134 3.08044 28.0009 2.12511 29.4456C1.64725 30.1682 1.27101 30.7557 1.01363 31.1636C0.884926 31.3675 0.785908 31.5266 0.718729 31.6353C0.685139 31.6896 0.659505 31.7313 0.642098 31.7597C0.633394 31.7739 0.626746 31.7848 0.622189 31.7923C0.61991 31.796 0.618153 31.7989 0.616923 31.8009C0.616309 31.802 0.615825 31.8028 0.615474 31.8033C0.615299 31.8036 0.615135 31.8039 0.615047 31.804C0.614916 31.8043 0.614818 31.8044 1.46973 32.3232C2.32463 32.842 2.3246 32.842 2.3246 32.842C2.32465 32.8419 2.32468 32.8419 2.32477 32.8417C2.32495 32.8415 2.32526 32.8409 2.3257 32.8402C2.32658 32.8388 2.32799 32.8365 2.32991 32.8333C2.33376 32.827 2.33969 32.8173 2.34767 32.8042C2.36362 32.7782 2.38777 32.7389 2.41983 32.687C2.48395 32.5833 2.57972 32.4295 2.70501 32.2309C2.9556 31.8338 3.32411 31.2583 3.79333 30.5488C4.73216 29.1291 6.0722 27.1757 7.67601 25.0423C10.9029 20.7498 15.1266 15.8252 19.2543 12.9993L18.1244 11.349Z" fill="#2F2B27"/>
</svg>
