<svg width="29" height="30" viewBox="0 0 29 30" fill="none" xmlns="http://www.w3.org/2000/svg">
<rect x="0.5" y="0.5" width="28" height="29" rx="6.5" fill="black" stroke="#F8D57B"/>
<path d="M20 18.6145C20 18.8485 19.9479 19.089 19.8373 19.323C19.7266 19.557 19.5834 19.778 19.3946 19.986C19.0756 20.337 18.7241 20.5905 18.327 20.753C17.9364 20.9155 17.5133 21 17.0576 21C16.3936 21 15.684 20.844 14.9354 20.5255C14.1868 20.207 13.4382 19.778 12.696 19.2385C11.9397 18.6861 11.2259 18.0777 10.5608 17.4185C9.90255 16.7568 9.29541 16.0463 8.74462 15.293C8.21082 14.552 7.78117 13.811 7.4687 13.0765C7.15623 12.3355 7 11.627 7 10.951C7 10.509 7.07812 10.0865 7.23435 9.6965C7.39059 9.3 7.63796 8.936 7.98297 8.611C8.3996 8.2015 8.85528 8 9.33701 8C9.51928 8 9.70155 8.039 9.8643 8.117C10.0336 8.195 10.1833 8.312 10.3005 8.481L11.8107 10.6065C11.9279 10.769 12.0125 10.9185 12.0711 11.0615C12.1297 11.198 12.1622 11.3345 12.1622 11.458C12.1622 11.614 12.1167 11.77 12.0255 11.9195C11.9409 12.069 11.8172 12.225 11.661 12.381L11.1662 12.8945C11.0946 12.966 11.0621 13.0505 11.0621 13.1545C11.0621 13.2065 11.0686 13.252 11.0816 13.304C11.1012 13.356 11.1207 13.395 11.1337 13.434C11.2509 13.6485 11.4527 13.928 11.7391 14.266C12.032 14.604 12.3445 14.9485 12.683 15.293C13.0346 15.6375 13.3731 15.956 13.7181 16.2485C14.0566 16.5345 14.3365 16.7295 14.5578 16.8465C14.5904 16.8595 14.6294 16.879 14.675 16.8985C14.7271 16.918 14.7792 16.9245 14.8378 16.9245C14.9484 16.9245 15.033 16.8855 15.1047 16.814L15.5994 16.3265C15.7621 16.164 15.9184 16.0405 16.0681 15.9625C16.2178 15.8715 16.3676 15.826 16.5303 15.826C16.654 15.826 16.7842 15.852 16.9274 15.9105C17.0706 15.969 17.2203 16.0535 17.3831 16.164L19.5378 17.6915C19.7071 17.8085 19.8242 17.945 19.8958 18.1075C19.9609 18.27 20 18.4325 20 18.6145Z" fill="url(#paint0_linear_202_3)"/>
<defs>
<linearGradient id="paint0_linear_202_3" x1="10.2876" y1="12.0857" x2="17.9591" y2="11.951" gradientUnits="userSpaceOnUse">
<stop stop-color="#F8D57B"/>
<stop offset="1" stop-color="#F5CB5D"/>
</linearGradient>
</defs>
</svg>
