<svg
  width="227"
  height="66"
  viewBox="0 0 227 66"
  fill="none"
  xmlns="http://www.w3.org/2000/svg"
>
<path
    d="M63.7284 47.7314V54.1047H62.2574V48.931H59.3688V54.1047H57.8978V47.7314H63.7328H63.7284ZM71.9381 52.7418H68.9652L68.3981 54.1091H66.8785L69.7317 47.7358H71.1938L74.0559 54.1091H72.5008L71.9337 52.7418H71.9381ZM71.4729 51.6215L70.4583 49.1824L69.4437 51.6215H71.4729ZM79.9706 47.7314C80.5377 47.7314 81.0295 47.824 81.4415 48.0136C81.8624 48.2033 82.1858 48.4679 82.4118 48.8164C82.6378 49.1604 82.7485 49.5706 82.7485 50.0469C82.7485 50.5233 82.6378 50.9246 82.4118 51.2775C82.1858 51.6215 81.8624 51.8905 81.4415 52.0802C81.0251 52.261 80.5377 52.3537 79.9706 52.3537H78.6813V54.1091H77.2015V47.7358H79.975L79.9706 47.7314ZM79.8864 51.1452C80.3295 51.1452 80.6706 51.0525 80.901 50.8629C81.1314 50.6688 81.2466 50.3954 81.2466 50.0425C81.2466 49.6897 81.1314 49.4118 80.901 49.2221C80.6706 49.0281 80.3295 48.931 79.8864 48.931H78.6769V51.1452H79.8864ZM88.4949 51.5377H87.4714V54.1047H86.0005V47.7314H87.4714V50.3071H88.5303L90.2139 47.7314H91.7779L89.6823 50.8099L91.8399 54.1047H90.1563L88.4905 51.5377H88.4949ZM104.799 48.931H102.748V54.1047H101.286V48.931H99.2477V47.7314H104.799V48.931ZM112.03 52.7374H109.057L108.49 54.1047H106.97L109.823 47.7314H111.285L114.148 54.1047H112.592L112.025 52.7374H112.03ZM111.565 51.6171L110.55 49.178L109.535 51.6171H111.565ZM119.77 51.5333H118.746V54.1002H117.275V47.7269H118.746V50.3027H119.805L121.489 47.7269H123.053L120.957 50.8055L123.115 54.1002H121.431L119.765 51.5333H119.77ZM130.921 48.9266H128.87V54.1002H127.408V48.9266H125.37V47.7269H130.921V48.9266ZM134.138 47.7269H135.609V51.8773L138.666 47.7269H140.057V54.1002H138.595V49.9587L135.538 54.1002H134.138V47.7269ZM149.02 47.7269V54.1002H147.558V51.8067C147.004 52.0052 146.486 52.1067 146.012 52.1067C145.152 52.1067 144.492 51.9038 144.036 51.498C143.579 51.0834 143.349 50.4924 143.349 49.7205V47.7269H144.811V49.5573C144.811 49.994 144.926 50.3248 145.157 50.5497C145.396 50.7703 145.737 50.8761 146.18 50.8761C146.667 50.8761 147.124 50.7835 147.554 50.5938V47.7269H149.016H149.02ZM157.859 52.9182V54.1002H152.901V47.7269H157.739V48.909H154.372V50.2939H157.345V51.4407H154.372V52.9138H157.859V52.9182ZM164.354 54.2105C163.703 54.2105 163.109 54.0694 162.577 53.7915C162.055 53.5048 161.638 53.1167 161.332 52.6183C161.036 52.1155 160.885 51.5465 160.885 50.9158C160.885 50.2851 161.036 49.7205 161.332 49.2221C161.638 48.7193 162.05 48.3268 162.577 48.0489C163.109 47.7622 163.703 47.6211 164.363 47.6211C164.917 47.6211 165.417 47.7181 165.865 47.9122C166.317 48.1063 166.693 48.3841 166.999 48.7502L166.046 49.6235C165.612 49.1251 165.076 48.8781 164.438 48.8781C164.044 48.8781 163.689 48.9663 163.375 49.1427C163.065 49.3148 162.821 49.5529 162.644 49.8617C162.471 50.1704 162.387 50.5233 162.387 50.9158C162.387 51.3083 162.471 51.6612 162.644 51.9743C162.821 52.2831 163.065 52.5257 163.375 52.7021C163.685 52.8741 164.039 52.9579 164.438 52.9579C165.081 52.9579 165.617 52.7065 166.046 52.2037L166.999 53.077C166.693 53.4475 166.317 53.7298 165.865 53.9238C165.413 54.1179 164.912 54.2149 164.354 54.2149V54.2105ZM172.728 51.5333H171.704V54.1002H170.233V47.7269H171.704V50.3027H172.763L174.447 47.7269H176.011L173.915 50.8055L176.073 54.1002H174.389L172.723 51.5333H172.728ZM179.059 47.7269H180.53V51.8773L183.587 47.7269H184.978V54.1002H183.516V49.9587L180.459 54.1002H179.059V47.7269ZM190.011 47.7269L191.336 49.6588L192.66 47.7269H194.397L192.266 50.7791L194.57 54.1047H192.824L191.331 51.992L189.86 54.1047H188.15L190.436 50.8452L188.296 47.7314H190.007L190.011 47.7269ZM202.625 47.7269H204.096V51.8773L207.153 47.7269H208.544V54.1002H207.082V49.9587L204.025 54.1002H202.625V47.7269ZM216.935 48.9266H213.887L213.896 54.1002H212.425V47.7269H216.944L216.935 48.9266ZM222.908 47.7269C223.475 47.7269 223.966 47.8196 224.378 48.0092C224.799 48.1989 225.123 48.4635 225.349 48.812C225.575 49.156 225.685 49.5662 225.685 50.0425C225.685 50.5188 225.575 50.9202 225.349 51.2731C225.123 51.6171 224.799 51.8861 224.378 52.0758C223.962 52.2566 223.475 52.3492 222.908 52.3492H221.618V54.1047H220.138V47.7314H222.912L222.908 47.7269ZM222.823 51.1407C223.266 51.1407 223.608 51.0481 223.838 50.8585C224.068 50.6644 224.183 50.3909 224.183 50.0381C224.183 49.6852 224.068 49.4074 223.838 49.2177C223.608 49.0237 223.266 48.9266 222.823 48.9266H221.614V51.1407H222.823Z"
    fill="white"
  />
<path
    d="M57.8978 36.0696V8.55641H63.529V19.7328H64.3132L68.5798 8.55641H74.1755L69.0228 21.4971L74.4458 36.0696H68.6817L64.3132 23.7729H63.529V36.0696H57.8978ZM82.6865 36.4445C80.6618 36.4445 79.0579 36.0829 77.875 35.3595C76.692 34.6362 75.8414 33.6041 75.3141 32.2677C74.8135 30.9093 74.5654 29.2906 74.5654 27.4117V17.1526C74.5654 15.2737 74.8135 13.6639 75.3141 12.3275C75.8369 10.9911 76.692 9.97221 77.875 9.27093C79.0579 8.56964 80.6618 8.2168 82.6865 8.2168C84.7112 8.2168 86.3505 8.57847 87.5335 9.3018C88.7386 10.0031 89.5937 11.0219 90.0943 12.3583C90.6171 13.6727 90.8785 15.2693 90.8785 17.1482V27.4073C90.8785 29.2862 90.6171 30.9049 90.0943 32.2633C89.5937 33.5997 88.743 34.6318 87.5335 35.3551C86.3505 36.0785 84.7378 36.4401 82.6865 36.4401V36.4445ZM82.6865 32.4045C83.4131 32.4045 83.9492 32.2457 84.2903 31.9281C84.6315 31.5885 84.8574 31.1474 84.9726 30.6049C85.0878 30.0404 85.1454 29.4405 85.1454 28.8054V15.7942C85.1454 15.1591 85.0878 14.5725 84.9726 14.0299C84.8574 13.4874 84.6315 13.0552 84.2903 12.7376C83.9492 12.398 83.4131 12.226 82.6865 12.226C82.0042 12.226 81.4903 12.3936 81.1491 12.7376C80.808 13.0552 80.582 13.483 80.4668 14.0299C80.3516 14.5725 80.2985 15.1635 80.2985 15.7942V28.8054C80.2985 29.4405 80.3428 30.0404 80.4358 30.6049C80.551 31.1474 80.777 31.5885 81.1181 31.9281C81.4592 32.2457 81.9821 32.4045 82.6865 32.4045ZM92.6551 36.0741L93.1336 8.56082H99.1059L102.517 25.9165L106.168 8.56082H111.932L112.411 36.0741H108.317L107.874 17.4261L104.361 36.0741H100.847L97.161 17.2894L96.7844 36.0741H92.6551ZM114.502 36.0741L114.98 8.56082H120.953L124.364 25.9165L128.015 8.56082H133.779L134.258 36.0741H130.164L129.721 17.4261L126.207 36.0741H122.694L119.008 17.2894L118.631 36.0741H114.502ZM135.086 36.0741L140.443 8.56082H146.685L152.006 36.0741H146.787L145.799 30.0271H141.431L140.372 36.0741H135.082H135.086ZM141.944 26.5957H145.254L143.584 15.4899L141.944 26.5957ZM153.003 36.0741V8.55641H158.634V19.8652H163.512V8.55641H169.143V36.0696H163.512V23.8744H158.634V36.0696H153.003V36.0741ZM170.016 41.8122V32.0648H170.871C171.372 31.884 171.837 31.5885 172.271 31.1827C172.705 30.7505 173.091 30.1992 173.432 29.5199C173.795 28.8186 174.128 27.9453 174.42 26.9044C174.717 25.8636 174.965 24.5933 175.169 23.1025C175.373 21.6073 175.545 19.8652 175.683 17.8716L176.365 8.56523H188.957V32.0692H191.96V41.8166H188.172L187.867 36.0785H174.287L173.946 41.8166H170.021L170.016 41.8122ZM176.192 32.0648H183.667V12.5656H180.698L180.392 18.542C180.277 20.5797 180.118 22.313 179.914 23.7376C179.71 25.1623 179.458 26.3531 179.165 27.3058C178.89 28.2364 178.598 28.9951 178.279 29.5817C177.96 30.1683 177.619 30.6446 177.256 31.0063C176.892 31.368 176.538 31.7208 176.197 32.0604L176.192 32.0648ZM200.511 36.4445C198.487 36.4445 196.883 36.0829 195.7 35.3595C194.517 34.6362 193.662 33.6041 193.139 32.2677C192.638 30.9093 192.39 29.2906 192.39 27.4117V17.1526C192.39 15.2737 192.638 13.6639 193.139 12.3275C193.662 10.9911 194.517 9.97221 195.7 9.27093C196.883 8.56964 198.487 8.2168 200.511 8.2168C202.536 8.2168 204.175 8.57847 205.358 9.3018C206.563 10.0031 207.418 11.0219 207.919 12.3583C208.442 13.6727 208.703 15.2693 208.703 17.1482V27.4073C208.703 29.2862 208.442 30.9049 207.919 32.2633C207.418 33.5997 206.568 34.6318 205.358 35.3551C204.175 36.0785 202.563 36.4401 200.511 36.4401V36.4445ZM200.511 32.4045C201.238 32.4045 201.774 32.2457 202.115 31.9281C202.456 31.5885 202.682 31.1474 202.797 30.6049C202.913 30.0404 202.966 29.4405 202.966 28.8054V15.7942C202.966 15.1591 202.908 14.5725 202.797 14.0299C202.682 13.4874 202.456 13.0552 202.115 12.7376C201.774 12.398 201.238 12.226 200.511 12.226C199.829 12.226 199.315 12.3936 198.974 12.7376C198.633 13.0552 198.407 13.483 198.292 14.0299C198.176 14.5725 198.119 15.1635 198.119 15.7942V28.8054C198.119 29.4405 198.163 30.0404 198.256 30.6049C198.371 31.1474 198.597 31.5885 198.938 31.9281C199.28 32.2457 199.802 32.4045 200.507 32.4045H200.511ZM218.26 36.4445C216.213 36.4445 214.587 36.0608 213.382 35.289C212.199 34.5171 211.37 33.4542 210.892 32.0957C210.413 30.7152 210.174 29.1186 210.174 27.3058V17.4217C210.174 15.5207 210.413 13.8888 210.892 12.5304C211.37 11.1498 212.199 10.0869 213.382 9.33709C214.587 8.5917 216.213 8.2168 218.26 8.2168C220.307 8.2168 221.787 8.54318 222.899 9.20036C224.037 9.85754 224.83 10.7838 225.287 11.9878C225.765 13.1875 226.004 14.5813 226.004 16.1647V18.4758H220.546V15.8956C220.546 15.2605 220.511 14.6739 220.444 14.1314C220.378 13.5668 220.183 13.1125 219.864 12.7729C219.567 12.4113 219.044 12.2304 218.295 12.2304C217.547 12.2304 216.997 12.4113 216.656 12.7729C216.315 13.1346 216.098 13.6109 216.009 14.1976C215.916 14.7621 215.872 15.3972 215.872 16.0985V28.5981C215.872 29.37 215.929 30.0492 216.04 30.6358C216.178 31.2004 216.417 31.6458 216.758 31.959C217.121 32.2545 217.635 32.4 218.295 32.4C219.022 32.4 219.536 32.228 219.833 31.8884C220.152 31.5267 220.347 31.0504 220.413 30.4638C220.506 29.8772 220.55 29.2509 220.55 28.5937V25.9121H226.009V28.1879C226.009 29.7978 225.783 31.2224 225.327 32.4662C224.87 33.6879 224.086 34.6627 222.974 35.386C221.857 36.0873 220.289 36.4401 218.264 36.4401L218.26 36.4445Z"
    fill="white"
  />
<path
    fill-rule="evenodd"
    clip-rule="evenodd"
    d="M0.0575965 0L19.9461 8.64475L38.6916 0H38.8024V57.3552H21.5252C22.7496 56.8589 24.4603 56.163 26.3171 55.4059C29.8438 53.9769 32.7901 52.786 32.8432 52.7684C32.9319 52.7419 32.9584 51.8863 32.9584 48.8827V45.0322L19.4144 50.4617L5.84375 45.0499L5.86147 48.8915C5.87033 51.873 5.89692 52.7419 5.97667 52.7684H5.97223C6.02975 52.7848 8.59789 53.81 11.8255 55.0984L11.8262 55.0987L12.5958 55.4059C14.4848 56.1623 16.2122 56.8585 17.4343 57.3552H0V0H0.0575965ZM17.4349 57.3555H0.0576172L19.9461 66.0002L38.6916 57.3555H21.5247C20.4239 57.8017 19.7163 58.0866 19.6492 58.1096C19.472 58.1802 19.3657 58.1802 19.2549 58.1096C19.2172 58.0846 18.5284 57.7999 17.4349 57.3555ZM15.5066 20.9062C15.6395 20.8797 16.1224 19.9799 17.5224 17.1483C18.5326 15.093 19.3877 13.417 19.4143 13.417C19.4409 13.417 20.2915 15.0886 21.315 17.1395C22.715 19.9667 23.1979 20.8797 23.3397 20.9062C23.4372 20.9326 25.1961 21.184 27.2518 21.4751C29.3032 21.7618 31.1019 22.0265 31.2526 22.0617C31.5095 22.1058 31.4298 22.1941 25.4752 27.9984L26.1442 31.8488L26.259 32.5098L26.2595 32.5128C26.5765 34.3376 26.8338 35.8192 26.8575 35.9374C26.8752 36.0786 26.8575 36.1844 26.8132 36.1844C26.76 36.1844 25.1075 35.3332 23.1359 34.3011C21.1643 33.269 19.494 32.4178 19.4231 32.4178C19.3434 32.4178 17.6731 33.269 15.7015 34.3011C13.7299 35.3332 12.0774 36.1844 12.0331 36.1844C11.9799 36.1844 11.9622 36.0786 11.9887 35.9374C11.9984 35.8654 12.0987 35.287 12.3549 33.8104C12.569 32.5759 12.8921 30.7134 13.3622 27.994L10.345 25.0521C7.40761 22.1896 7.32786 22.1014 7.59369 22.0573C7.73547 22.022 9.53868 21.7574 11.5944 21.4707C13.6458 21.1796 15.4135 20.9282 15.5066 20.9018V20.9062ZM5.888 39.3997L5.91458 43.2148L5.91901 43.2192L19.4631 48.6487L32.9185 43.2192C32.9362 37.2914 32.9185 35.5757 32.8831 35.5757C32.8565 35.5757 29.8039 36.7842 26.1 38.2529L19.37 40.939C9.01151 36.7798 5.97661 35.5713 5.93231 35.5713C5.89686 35.5713 5.87914 37.3002 5.888 39.3997Z"
    fill="white"
  />
</svg>
