<svg
  width="705"
  height="665"
  viewBox="0 0 705 665"
  fill="none"
  xmlns="http://www.w3.org/2000/svg"
>
<path
    fill-rule="evenodd"
    clip-rule="evenodd"
    d="M549.234 388.995C593.329 344.15 681.47 339.888 700.329 279.901C716.982 226.932 683.943 145.982 630.419 130.768C549.707 107.825 464.447 229.581 389.628 191.584C333.586 163.124 429.079 49.907 384.327 5.79139C352.836 -25.2526 321.163 78.5258 277.003 80.5588C219.068 83.2259 161.2 -19.1496 116.855 18.1048C71.5728 56.1468 170.05 137.218 145.528 191.012C122.078 242.454 -3.58315 217.827 0.0784236 274.274C3.90461 333.259 140.868 297.24 156.124 354.371C176.366 430.171 61.1423 497.613 80.0508 573.753C94.0589 630.161 180.277 684.674 231.2 656.681C309.061 613.88 277.979 471.017 353.13 423.638C397.072 395.935 439.562 502.085 490.76 493.041C530.493 486.022 520.982 417.73 549.234 388.995Z"
    fill="#FEF2EF"
  />
<path
    d="M44.0085 468.271C41.068 467.488 37.9086 467.094 35.1585 465.75C31.9012 464.125 30.3253 461.093 29.7269 457.571C29.2215 454.54 29.1095 451.393 29.3558 448.292C29.5566 445.551 29.92 442.677 28.9333 440.009C28.3917 438.514 26.3819 438.675 25.9236 440.151C24.2394 445.99 22.513 452.021 19.2073 457.166C17.7401 459.427 15.7729 461.679 13.1722 462.549C10.0684 463.577 7.01004 462.265 4.40129 460.583C2.72955 459.509 1.28447 462.279 2.9562 463.352C3.42472 463.657 3.93219 463.937 4.43966 464.216C4.34497 464.799 4.55868 465.35 5.2647 465.64C10.281 467.484 17.5214 468.039 20.1935 473.394C23.3849 479.736 20.3361 487.825 20.302 494.531C20.2874 496.273 23.046 496.512 23.362 494.769C24.5068 488.644 26.6716 481.837 30.9492 477.141C34.4346 473.31 40.1787 473.67 44.4601 471.089C45.7246 470.361 45.2782 468.584 44.0085 468.271ZM28.3654 475.497C26.9149 477.225 25.7166 479.176 24.6708 481.195C24.7926 477.898 24.4891 474.71 22.9061 471.709C21.0883 468.254 17.9407 466.587 14.4961 465.358C17.1179 464.392 19.2982 462.389 20.9569 460.17C23.2487 457.05 24.9015 453.487 26.2103 449.814C26.186 450.078 26.1546 450.373 26.1621 450.643C26.0761 454.081 26.3666 457.938 27.4573 461.199C28.5121 464.319 30.5658 466.852 33.4791 468.367C35.1045 469.195 36.8568 469.749 38.6372 470.175C37.5282 470.501 36.4013 470.756 35.2852 471.114C32.5956 471.932 30.1838 473.313 28.3654 475.497Z"
    fill="#2F2B27"
  />
</svg>
