<svg width="225" height="233" viewBox="0 0 225 233" fill="none" xmlns="http://www.w3.org/2000/svg">
<path fill-rule="evenodd" clip-rule="evenodd" d="M175.012 65.3208C174.349 67.3556 173.654 69.5387 172.918 71.8304C185.041 65.3924 194.445 62.816 208.056 70.1409C235.588 84.9642 222.82 113.613 205.206 130.083C190.739 143.612 171.197 150.998 151.703 143.567C148.044 142.171 144.576 140.393 141.104 138.603C137.831 142.037 134.299 144.877 130.477 146.91C124.886 149.881 117.956 151.366 110.618 151.532C104.139 164.861 98.6824 178.613 98.8433 193.717C98.8499 194.201 98.8632 194.672 98.8792 195.129C102.003 196.462 105.122 197.795 108.224 199.167C116.715 202.92 134.944 209.811 132.862 220.94C129.531 238.727 92.3569 232.008 79.8686 228.984C69.8313 226.55 38.1376 216.588 42.7055 202.737C46.8024 190.32 70.6315 191.25 81.4634 191.342C83.3818 187.484 84.5179 183.148 85.3265 178.894C87.6838 166.519 87.4257 158.125 83.393 146.421C74.2073 142.653 66.3108 136.915 61.8659 129.587C60.951 128.078 60.1591 126.408 59.4792 124.61C57.1755 124.797 54.975 124.955 52.6239 124.955C31.6099 124.951 15.9991 111.013 7.38898 93.0427C-3.01127 71.3277 -4.45742 40.0173 26.607 36.1644C42.0271 34.2508 49.8472 40.1098 58.8402 50.5785C59.0327 48.475 59.2299 46.3725 59.4271 44.2699C59.403 43.6231 59.4624 42.9726 59.6193 42.374L59.6149 42.3973C62.0425 34.97 71.7751 37.5987 77.9008 38.5862C82.3507 39.3035 86.8023 40.0886 91.2469 40.8338C111.565 44.237 133.172 47.3792 153.216 51.6873C158.818 52.8906 176.054 56.6248 175.222 64.4619C175.189 64.7648 175.112 65.0498 174.998 65.3133L175.012 65.3208ZM112.958 65.8349C104.353 64.5715 103.905 65.8304 97.6152 71.7039C96.5671 72.6812 91.8969 76.1776 92.6795 77.7151C93.3495 79.0237 101.07 79.5467 102.881 79.6733C102.851 82.6428 98.9194 108.001 98.0539 110.775C96.2094 110.546 91.6471 109.571 90.2288 110.648C88.5211 111.941 87.2049 122.575 88.2932 124.122C89.8744 126.365 104.724 128.507 107.925 129.068C118.719 130.958 118.628 132.294 121.017 122.898C123.555 112.928 123.574 114.428 116.092 113.056C116.455 106.068 125.432 73.6808 123.835 69.5084C122.934 67.152 115.365 66.3145 112.958 65.8349ZM112.527 68.1206C110.528 67.8238 109.014 67.4244 107.07 67.6689C104.683 67.9657 98.9169 73.4641 95.9735 76.4434C97.3563 76.6636 98.7801 76.8481 100.085 77.0104C101.62 77.2012 104.366 76.9232 105.054 78.5733C105.788 80.3431 101.312 108.763 100.224 111.708C99.0891 114.77 93.7596 111.946 91.6557 112.495C91.104 113.246 90.0967 121.548 90.1778 122.616C90.2678 123.792 114.936 128.236 116.853 127.953C117.62 127.841 119.878 117.981 120.142 115.964C120.128 115.961 120.113 115.959 120.099 115.956C114.902 114.755 113.078 116.641 114.042 110.634C115.088 104.112 122.209 74.5746 121.68 70.4815C121.571 69.6642 113.561 68.3287 112.527 68.1206ZM61.6982 44.4101L61.765 44.4179L61.7377 44.717C61.8659 45.4847 62.2252 46.2427 62.8323 46.902C67.0929 51.5393 99.6363 56.2799 107.331 57.6094C112.896 58.5741 172.257 70.1129 172.873 64.2201C173.47 58.5074 156.806 54.8417 152.714 53.9598C132.705 49.6631 111.128 46.5217 90.8529 43.1265C84.6833 42.0873 71.6733 39.4294 66.3874 39.8065C63.9643 39.9807 62.4173 41.2751 61.8879 42.8374C61.7186 43.3467 61.652 43.8799 61.6982 44.4101ZM61.3749 48.5996C60.8548 54.1674 60.3497 59.7331 59.8823 65.3059C58.4456 82.491 55.0156 113.791 63.8717 128.393C75.1531 146.994 110.594 154.836 129.356 144.86C151.551 133.059 164.073 91.7191 171.792 67.64C165.145 69.67 150.862 67.0441 147.265 66.5348C126.896 63.6582 105.252 59.8379 84.9961 56.002C79.7841 55.0069 66.2491 53.1393 61.3749 48.5996ZM80.1679 193.654C69.9683 193.521 48.3466 193.12 44.9275 203.472C41.4079 214.124 68.2769 223.443 76.1681 225.621C87.3503 228.709 127.451 237.004 130.544 220.506C132.222 211.547 116.031 205.226 109.179 202.142C105.833 200.637 102.462 199.195 99.086 197.751C99.7918 203.288 102.085 206.668 107.41 210.602L106.021 212.476C98.8984 207.216 96.5802 202.575 96.4841 193.734C96.3218 178.61 101.572 164.892 107.998 151.534C100.732 151.391 93.1805 149.996 86.2166 147.509C89.7945 158.679 89.9387 167.211 87.6297 179.33C85.4715 190.652 81.8831 199.524 70.7676 204.577L67.7705 205.827L66.8748 203.674C68.8293 202.857 70.764 202.118 72.6055 201.072C75.8844 199.208 78.3228 196.631 80.1679 193.654ZM171.887 75.0422C171.082 77.5477 170.232 80.1608 169.335 82.847C178.773 76.6307 188.005 72.3996 200.036 76.0575C212.788 79.9324 218.407 91.8124 213.236 104.208C208.178 116.344 196.663 128.286 184.072 132.729C172.297 136.885 159.38 137.683 148.02 131.823L147.076 131.317C145.679 133.263 144.233 135.102 142.724 136.819L144.204 137.585C159.301 145.226 171.198 146.835 186.812 139.791C210.041 129.308 239.194 91.6185 208.505 73.084C194.579 64.6667 185.01 67.8062 171.887 75.0422ZM168.099 86.4938C163.141 100.967 156.8 117.002 148.415 129.389L149.111 129.762C159.864 135.305 172.15 134.461 183.283 130.533C195.246 126.311 206.258 114.835 211.064 103.309C215.695 92.1981 210.79 81.7558 199.35 78.2761C187.008 74.5311 177.815 79.8128 168.099 86.4938ZM57.5207 65.3611C51.0011 55.795 44.3317 47.8478 31.7352 46.8996C19.8068 46.0041 11.426 53.959 11.6859 65.985C11.9589 78.4578 18.0298 93.1362 27.6351 101.397C35.8605 108.467 45.6981 113.303 56.6865 113.235C54.4267 97.5941 56.4465 78.1227 57.5207 65.3611ZM57.0627 115.556C45.3197 115.72 34.8858 110.708 26.0979 103.156C15.9887 94.4645 9.62345 79.1748 9.33448 66.0374C9.04484 52.6197 18.6106 43.5826 31.9043 44.5841C44.2561 45.5106 51.3427 52.6184 57.8244 61.7138C58.0517 59.0904 58.2884 56.4687 58.5251 53.8471C48.9285 42.3381 41.1611 35.9433 25.0952 38.7454C-10.2606 44.9147 3.14817 90.5729 20.9649 108.74C32.2374 120.234 43.1568 123.399 58.6795 122.336C58.0182 120.207 57.4866 117.934 57.0627 115.556ZM50.9743 27.9715C44.4875 21.9758 38.0015 15.9754 31.5099 9.97875C29.1511 7.79846 26.7922 5.61818 24.4334 3.43789L22.6642 1.8027L24.2682 0.103516C30.755 6.09931 37.241 12.0997 43.7325 18.0963C46.6811 20.8217 49.6297 23.5471 52.5782 26.2724L50.9743 27.9715ZM74.7214 24.7918C72.3379 20.1341 69.9505 15.4708 67.567 10.8132L69.6632 9.76162C72.0514 14.4201 74.434 19.0825 76.8176 23.7402L74.7214 24.7918ZM101.422 26.7384C102.294 21.6084 103.159 16.4821 104.031 11.352L106.347 11.7423C105.476 16.8723 104.61 21.9986 103.738 27.1286L101.422 26.7384ZM128.831 32.7298C131.136 27.868 133.438 23.0107 135.742 18.1487L137.871 19.1414C135.568 24.0034 133.265 28.8607 130.961 33.7225L128.831 32.7298ZM154.059 38.0614C159.56 31.4511 165.069 24.8372 170.572 18.227L172.384 19.7109C166.88 26.3257 161.373 32.9351 155.871 39.5452L154.059 38.0614ZM175.247 51.161C183.059 45.9589 190.871 40.7615 198.682 35.5591L199.996 37.4906C192.184 42.688 184.373 47.8903 176.56 53.0925L175.247 51.161Z" fill="#2F2B27"/>
</svg>
