<svg
  width="69"
  height="89"
  viewBox="0 0 69 89"
  fill="none"
  xmlns="http://www.w3.org/2000/svg"
>
<path
    fill-rule="evenodd"
    clip-rule="evenodd"
    d="M23.7386 16.4983C19.8853 25.4668 2.15383 64.2903 2.93196 72.1272C3.62831 79.2039 20.6239 88.9224 26.8576 84.9913C37.3401 78.3823 59.4104 30.1659 63.7598 17.2729C66.7409 8.4392 66.003 8.63058 58.2412 6.10732C54.9544 5.04087 44.1399 1.1306 40.9786 3.82257C35.2966 8.65647 17.3775 56.6056 19.3568 63.4211C20.0669 65.8759 28.1641 70.562 31.1491 66.763C34.7556 62.1607 45.3778 37.7259 48.8711 30.0303L51.5292 31.2584C47.878 39.2885 37.294 63.7026 33.4157 68.6214C28.8566 74.4053 17.9392 68.9185 16.5548 64.2276C14.3522 56.7563 27.6052 23.6682 31.103 15.4388C37.7061 -0.0893526 38.9579 -2.43265 54.719 1.97413C58.0426 2.90388 66.5114 4.67895 67.869 8.49967C70.8669 16.9556 45.7798 63.6425 40.447 72.6148C35.5185 80.9049 29.993 91.2731 19.2102 88.3114C11.2554 86.1305 -0.614274 79.8037 0.0247661 70.1265C0.610515 61.2881 16.8562 25.1283 21.072 15.315L23.7386 16.4983Z"
    fill="#2F2B27"
  />
</svg>
