<svg
  width="475"
  height="446"
  viewBox="0 0 475 446"
  fill="none"
  xmlns="http://www.w3.org/2000/svg"
>
<path
    fill-rule="evenodd"
    clip-rule="evenodd"
    d="M189.378 61.3343C147.934 47.5703 118.325 -6.01923 75.1568 0.556572C37.0381 6.36315 -3.33187 51.6617 3.5483 89.6415C13.9231 146.913 115.908 162.824 115.095 221.023C114.486 264.616 14.6961 239.725 0.873626 281.068C-8.85318 310.161 65.5377 298.19 80.3083 325.071C99.6862 360.336 53.5494 427.641 90.3371 443.88C127.903 460.462 148.339 374.373 189.378 373.215C228.622 372.108 251.692 457.887 285.767 438.367C321.374 417.969 257.036 343.674 287.993 316.724C329.065 280.968 406.348 332.128 448.039 297.098C478.926 271.147 486.552 200.804 453.527 177.641C403.033 142.223 323.462 205.212 270.942 172.881C240.232 153.976 293.425 95.0952 272.13 65.9731C255.605 43.3726 215.933 70.1534 189.378 61.3343Z"
    fill="#E7EAF2"
  />
</svg>
