<svg
  width="322"
  height="328"
  viewBox="0 0 322 328"
  fill="none"
  xmlns="http://www.w3.org/2000/svg"
>
<path
    fill-rule="evenodd"
    clip-rule="evenodd"
    d="M56.0011 286.467C42.874 258.24 56.0637 229.966 51.2162 199.221C44.8977 159.146 -35.5643 85.3851 20.421 43.7943C48.4501 22.9719 119.13 85.1185 150.571 69.9258C171.821 59.6573 162.544 41.9387 184.241 17.6574C205.937 -6.6239 243.716 -2.7608 259.533 14.4818C293.855 51.8965 254.353 57.3206 268.731 86.8554C278.068 106.034 315.417 102.133 320.707 122.794C326.059 143.695 265.582 145.369 264.339 166.902C261.565 214.951 366.452 274.668 267.722 312.841C243.569 322.18 217.733 296.861 192.038 300.117C141.879 306.473 92.9542 365.928 56.0011 286.467Z"
    fill="#F6BF52"
  />
</svg>
