<svg
  width="20"
  height="20"
  viewBox="0 0 20 20"
  fill="none"
  xmlns="http://www.w3.org/2000/svg"
>
<path
    d="M14.996 19.8538C13.9602 19.8538 12.8693 19.6063 11.7418 19.1297C10.6418 18.6622 9.53266 18.0205 8.451 17.2413C7.3785 16.453 6.34266 15.573 5.36183 14.6105C4.39016 13.6297 3.51016 12.5938 2.731 11.5305C1.94266 10.4305 1.31016 9.33051 0.860996 8.26717C0.384329 7.13051 0.145996 6.03051 0.145996 4.99467C0.145996 4.27967 0.274329 3.60134 0.521829 2.96884C0.778496 2.31801 1.191 1.71301 1.75016 1.19051C2.456 0.493841 3.26266 0.145508 4.12433 0.145508C4.48183 0.145508 4.8485 0.228008 5.16016 0.374674C5.51766 0.539674 5.82016 0.787174 6.04016 1.11717L8.16683 4.11467C8.35933 4.38051 8.506 4.63717 8.60683 4.89384C8.726 5.16884 8.79016 5.44384 8.79016 5.70967C8.79016 6.05801 8.68933 6.39717 8.49683 6.71801C8.35933 6.96551 8.1485 7.23134 7.88266 7.49717L7.25933 8.14801C7.2685 8.17551 7.27766 8.19384 7.28683 8.21217C7.39683 8.40467 7.61683 8.73467 8.0385 9.22967C8.48766 9.74301 8.90933 10.2105 9.331 10.6413C9.87183 11.173 10.321 11.5947 10.7427 11.943C11.2652 12.383 11.6043 12.603 11.806 12.7038L11.7877 12.7497L12.4568 12.0897C12.741 11.8055 13.016 11.5947 13.2818 11.4572C13.786 11.1455 14.4277 11.0905 15.0693 11.3563C15.3077 11.4572 15.5643 11.5947 15.8393 11.7872L18.8827 13.9505C19.2218 14.1797 19.4693 14.473 19.616 14.8213C19.7535 15.1697 19.8177 15.4905 19.8177 15.8113C19.8177 16.2513 19.7168 16.6913 19.5243 17.1038C19.3318 17.5163 19.0935 17.8738 18.791 18.2038C18.2685 18.7813 17.7002 19.1938 17.0402 19.4597C16.4077 19.7163 15.7202 19.8538 14.996 19.8538ZM4.12433 1.52051C3.62016 1.52051 3.15266 1.74051 2.7035 2.18051C2.28183 2.57467 1.9885 3.00551 1.80516 3.47301C1.61266 3.94967 1.521 4.45384 1.521 4.99467C1.521 5.84717 1.72266 6.77301 2.126 7.72634C2.5385 8.69801 3.116 9.70634 3.84933 10.7147C4.58266 11.723 5.41683 12.7038 6.3335 13.6297C7.25016 14.5372 8.24016 15.3805 9.25766 16.123C10.2477 16.8472 11.2652 17.4338 12.2735 17.8555C13.841 18.5247 15.3077 18.6805 16.5177 18.1763C16.9852 17.9838 17.3977 17.6905 17.7735 17.2688C17.9843 17.0397 18.1493 16.7922 18.2868 16.4988C18.3968 16.2697 18.4518 16.0313 18.4518 15.793C18.4518 15.6463 18.4243 15.4997 18.351 15.3347C18.3235 15.2797 18.2685 15.1788 18.0943 15.0597L15.051 12.8963C14.8677 12.768 14.7027 12.6763 14.5468 12.6122C14.3452 12.5297 14.2627 12.4472 13.951 12.6397C13.7677 12.7313 13.6027 12.8688 13.4193 13.0522L12.7227 13.7397C12.3652 14.088 11.8152 14.1705 11.3935 14.0147L11.146 13.9047C10.7702 13.703 10.3302 13.3913 9.84433 12.9788C9.40433 12.603 8.92766 12.163 8.35016 11.5947C7.901 11.1363 7.45183 10.6505 6.98433 10.1097C6.5535 9.60551 6.24183 9.17467 6.04933 8.81717L5.93933 8.54217C5.88433 8.33134 5.866 8.21217 5.866 8.08384C5.866 7.75384 5.98516 7.46051 6.21433 7.23134L6.90183 6.51634C7.08516 6.33301 7.22266 6.15884 7.31433 6.00301C7.38766 5.88384 7.41516 5.78301 7.41516 5.69134C7.41516 5.61801 7.38766 5.50801 7.34183 5.39801C7.27766 5.25134 7.17683 5.08634 7.0485 4.91217L4.92183 1.90551C4.83016 1.77717 4.72016 1.68551 4.58266 1.62134C4.436 1.55717 4.28016 1.52051 4.12433 1.52051ZM11.7877 12.7588L11.641 13.3822L11.8885 12.7405C11.8427 12.7313 11.806 12.7405 11.7877 12.7588Z"
    fill="#F28C70"
  />
</svg>
