<svg width="73" height="74" viewBox="0 0 73 74" fill="none" xmlns="http://www.w3.org/2000/svg">
<path d="M62.6846 1.14478H10.6846C5.43787 1.14478 1.18457 5.39807 1.18457 10.6448V63.6448C1.18457 68.8915 5.43787 73.1448 10.6846 73.1448H62.6846C67.9313 73.1448 72.1846 68.8915 72.1846 63.6448V10.6448C72.1846 5.39807 67.9313 1.14478 62.6846 1.14478Z" fill="#F5E6F1" stroke="#D18FC0" stroke-dasharray="4 4"/>
<path d="M57.903 38.9286C62.7263 30.8558 58.8288 21.024 50.3024 17.6357C50.2269 17.6008 50.1448 17.5828 50.0617 17.5828C49.9785 17.5828 49.8964 17.6008 49.821 17.6357C47.0125 16.2237 43.8382 15.708 40.7272 16.1584C37.6161 16.6087 34.7184 18.0034 32.4256 20.1538C27.0376 25.403 27.2227 33.8923 31.5924 39.5211C26.8556 42.8319 22.3462 46.4567 18.0946 50.3712C16.5115 51.8432 12.4566 54.6483 14.6229 57.296C16.1875 59.1476 18.7796 57.8978 20.3164 56.7961C25.7322 52.88 30.4259 47.7327 35.1289 42.9835L35.3603 43.1594C35.3855 43.1925 35.4133 43.2235 35.4436 43.252C42.8313 48.2512 53.1352 46.8995 57.903 38.9286ZM26.658 49.3806C25.5471 50.4267 24.4269 51.4636 23.2882 52.4727C21.4366 54.1391 20.6127 55.9073 18.1594 54.6205C15.4746 53.2133 17.4928 52.8245 19.0851 51.371C20.3751 50.1737 21.6897 49.0041 23.029 47.8623C26.0377 45.2702 29.2409 42.8539 32.5182 40.5672C32.8329 40.9097 33.1662 41.2338 33.5088 41.493C33.5653 41.5304 33.6241 41.5644 33.6847 41.5948C33.805 41.7429 33.9439 41.8633 34.0735 42.0022C31.5924 44.5203 29.1854 46.9921 26.658 49.3806ZM47.1177 43.2797C43.2294 44.0852 36.3231 43.7611 34.1568 39.8729C34.0958 39.7466 33.9943 39.6443 33.8685 39.5822C33.7427 39.5202 33.5998 39.5019 33.4625 39.5303C29.3335 35.0496 28.3337 28.0507 31.9442 22.8663C35.6473 17.4968 43.7941 15.8582 49.4229 19.0058C54.8109 21.9961 57.5142 29.0135 55.8385 34.92C55.2883 36.9776 54.1844 38.845 52.6468 40.319C51.1092 41.7929 49.1968 42.817 47.1177 43.2797ZM46.5993 44.7054C49.4748 44.1903 52.1238 42.8077 54.1906 40.7431C58.6807 35.7346 58.6529 28.097 55.172 22.6071C56.7959 24.4397 57.8837 26.6842 58.3161 29.0944C58.7485 31.5045 58.5087 33.9871 57.6231 36.27C56.7376 38.5528 55.2403 40.5477 53.2957 42.0357C51.3511 43.5237 49.0342 44.4474 46.5993 44.7054Z" fill="#D18FC0"/>
<path d="M51.9595 36.6234C55.2831 31.6612 55.0424 24.8568 49.9506 21.2185C45.0162 17.682 38.0728 19.2558 34.3697 23.8384C29.639 29.6893 32.5182 35.2347 37.7396 39.2989C37.8374 39.3907 37.9665 39.4417 38.1006 39.4417C38.2348 39.4417 38.3639 39.3907 38.4617 39.2989C43.3776 41.8725 48.4601 41.8448 51.9595 36.6234ZM38.1654 37.5492C38.0877 37.5001 38.0005 37.4682 37.9095 37.4554C37.8186 37.4426 37.7259 37.4493 37.6377 37.4751C35.5177 35.7809 33.5458 33.8461 33.2958 30.9947C33.2293 29.6888 33.4427 28.3838 33.9217 27.1671C34.4007 25.9505 35.1343 24.8503 36.0732 23.9402C39.7207 20.3204 45.9142 19.3113 49.9598 23.0145C53.5796 26.3287 53.4037 31.4668 51.0337 35.4477C47.9787 40.6227 42.8221 40.3172 38.1654 37.5677V37.5492Z" fill="#D18FC0"/>
</svg>
