<svg
  width="96"
  height="91"
  viewBox="0 0 96 91"
  fill="none"
  xmlns="http://www.w3.org/2000/svg"
>
<path
    d="M1.67173 33.9086C3.1486 32.0126 5.41427 31.0342 7.76708 30.7396C11.965 30.2064 16.811 31.6259 20.0119 34.5418C19.435 31.1051 18.8304 27.6621 18.7167 24.1733C18.5918 20.2349 19.221 16.3691 20.6335 12.6983C22.8136 7.05473 27.0624 1.5848 33.3238 0.315168C40.229 -1.09469 47.3819 2.4 52.0189 7.32039C52.1588 7.46802 52.2818 7.62621 52.4186 7.78757C53.1208 6.21812 53.8919 4.66454 55.1119 3.43081C56.5819 1.93725 58.6096 0.918476 60.7074 0.781444C64.8857 0.51784 68.4324 3.75873 70.2402 7.21934C74.3926 15.202 72.3281 25.258 68.934 33.1034C68.1795 34.8339 67.3455 36.5317 66.4318 38.1966C67.5701 37.6221 68.8968 37.4229 70.0748 37.9829C70.4558 38.1572 70.7592 38.4146 71.0561 38.6995C71.3458 36.7175 71.9147 34.7856 72.9718 33.0671C74.3334 30.856 76.3611 29.2169 78.6643 28.0163C81.0152 26.7978 83.6982 25.9012 86.3807 25.9999C88.7192 26.0771 90.8598 27.0608 92.6142 28.5758C94.5255 30.2281 95.9601 32.5495 95.9998 35.1122C96.0177 35.9675 94.6646 36.0309 94.6499 35.1619C94.5909 31.2531 90.6783 27.7114 86.8609 27.3656C84.4684 27.1463 81.996 27.8895 79.8513 28.9101C77.8023 29.8952 75.893 31.2153 74.5563 33.0715C73.0622 35.1654 72.4 37.6819 72.202 40.2042C72.1997 40.2758 72.1699 40.3411 72.1401 40.4063C72.1507 40.4232 72.158 40.4537 72.1686 40.4706C72.8285 39.4541 73.3528 38.3342 74.1867 37.4443C75.078 36.4954 76.206 35.7166 77.3613 35.1315C79.2254 34.1905 81.2153 33.769 83.2987 34.0037C86.7008 34.3836 90.2266 36.5953 91.188 40.0052C91.7659 42.0716 91.2445 44.1733 90.113 45.9611C89.651 46.6915 88.4614 46.0567 88.9234 45.3264C90.0081 43.6142 90.4762 41.6158 89.6464 39.6934C88.913 37.9807 87.3589 36.7282 85.6693 35.9926C83.8342 35.1947 81.7041 35.0357 79.7852 35.5891C78.3179 36.0157 76.9287 36.792 75.7771 37.7962C74.7712 38.6754 74.1992 39.8131 73.4923 40.9054C73.8765 41.0661 74.2181 41.3468 74.4821 41.7105C75.0384 42.5023 75.2589 43.5486 75.2956 44.5093C75.3347 45.3983 75.2525 46.4325 74.7776 47.2176C74.1889 48.1785 72.9977 48.6686 71.9248 48.8398C71.229 48.9536 70.5229 48.863 69.9509 48.5726C68.5316 51.03 66.3599 53.0976 64.4039 55.1139C63.0999 56.4582 61.8129 57.7919 60.791 59.3598C59.7862 60.9172 58.9585 62.5877 58.2794 64.3067C56.9044 67.7553 56.2999 71.4536 54.9662 74.9118C54.0312 77.351 51.8368 81.938 48.4018 80.0213C46.9862 79.2334 46.3228 77.5947 45.9713 76.1142C45.7634 75.2007 45.6341 74.262 45.6356 73.3247C45.64 73.1814 45.6582 73.0414 45.6628 72.8981C42.2946 78.2102 37.8728 82.9911 32.739 86.5259C29.756 88.5797 26.3903 90.1559 22.8019 90.7574C19.2304 91.3483 15.6819 90.8482 12.3887 89.3825C9.72898 88.1926 7.09129 86.474 5.47542 83.9954C3.90504 81.5704 3.77119 78.7264 4.89543 76.1001C5.85773 73.8547 7.36224 71.9652 9.19873 70.3973C8.36964 70.1486 7.57259 69.763 6.80738 69.428C5.71316 68.945 4.58165 68.4968 3.66101 67.7077C1.85467 66.1662 1.87138 63.4866 3.12836 61.5977C5.53174 57.9821 11.0424 57.434 15.0079 57.3955C16.8464 57.3717 18.7378 57.4325 20.6003 57.6163C17.151 56.0714 13.8178 54.2791 10.6284 52.2458C6.38631 49.5516 1.48786 46.2446 0.225322 41.0774C-0.318986 38.5571 0.107594 35.9287 1.67173 33.9086ZM70.8227 21.9969C71.3709 18.228 71.3109 14.2611 70.1906 10.5982C69.1252 7.13557 66.7717 3.52037 63.0956 2.38487C60.8431 1.69275 58.4377 2.33598 56.6481 3.82801C55.0584 5.14972 54.1901 7.056 53.393 8.90654C57.5591 14.0358 59.78 20.3904 60.3682 26.946C61.0997 35.0637 59.5437 43.0729 56.7363 50.6495C56.881 50.4664 57.0151 50.2664 57.1598 50.0834C57.6982 49.3995 58.2642 48.7221 58.8408 48.0614C58.8356 47.9593 58.8581 47.8634 58.9113 47.7603C61.3206 43.6843 64.1194 39.8712 66.2614 35.6327C68.4332 31.3289 70.1264 26.7705 70.8227 21.9969ZM63.4626 43.1102C63.1442 43.5996 62.8398 44.092 62.5248 44.5676C62.8607 44.3133 63.1893 44.0283 63.5359 43.7907C63.4842 43.5769 63.4665 43.3419 63.4626 43.1102ZM70.6908 47.4013C70.7013 47.4182 70.7013 47.4182 70.6908 47.4013C70.7183 47.4076 70.7045 47.4044 70.7322 47.4108C70.7735 47.4203 70.8149 47.4299 70.8564 47.4394C70.9668 47.4649 71.0633 47.4871 71.177 47.4989C71.0633 47.4871 71.3522 47.4959 71.3936 47.5055C71.5242 47.5068 71.6443 47.4911 71.7643 47.4755C71.8844 47.4599 71.8397 47.4641 71.9938 47.4275C72.1 47.4086 72.1957 47.3729 72.2881 47.3509C72.5547 47.2681 72.6983 47.2146 72.8821 47.1127C73.049 47.0213 73.2158 46.93 73.3615 46.8048C73.3785 46.7943 73.3785 46.7943 73.3785 46.7943C73.3817 46.7805 73.3817 46.7805 73.3987 46.77C73.419 46.7459 73.453 46.7248 73.4763 46.687C73.5136 46.6523 73.537 46.6144 73.5743 46.5797C73.6445 46.466 73.701 46.3492 73.7574 46.2324C73.7638 46.2049 73.7734 46.164 73.7937 46.1397C73.83 46.047 73.8556 45.9375 73.878 45.8418C73.9197 45.6639 73.9444 45.4964 73.9552 45.3258C73.9617 45.2983 73.9598 45.1825 73.9662 45.1552C73.9779 45.0424 73.9728 44.9402 73.9708 44.8244C73.9744 44.6232 73.9641 44.4189 73.94 44.2113C73.9348 44.1091 73.9157 44.0038 73.9107 43.9016C73.9033 43.8711 73.9065 43.8574 73.899 43.8268C73.9022 43.8132 73.8769 43.7351 73.8801 43.7215C73.839 43.5244 73.7947 43.3411 73.7227 43.1514C73.7005 43.0598 73.6613 42.9786 73.6254 42.8837C73.6042 42.85 73.5968 42.8194 73.5756 42.7857C73.5651 42.7688 73.5651 42.7688 73.5651 42.7688C73.5651 42.7688 73.5651 42.7688 73.5544 42.7519C73.5046 42.654 73.4517 42.5695 73.3987 42.4852C73.3775 42.4515 73.3563 42.4178 73.3213 42.3809C73.3107 42.364 73.3107 42.364 73.3002 42.3471C73.3002 42.3471 73.3002 42.3471 73.2863 42.3439C73.2269 42.287 73.1813 42.2332 73.122 42.1762C73.1114 42.1594 73.0732 42.1362 73.0594 42.133C73.0455 42.1298 73.0212 42.1097 73.0074 42.1065C72.9829 42.0865 72.9554 42.0801 72.9309 42.0601C72.9172 42.0569 72.9309 42.0601 72.9172 42.0569C72.9172 42.0569 72.9172 42.0569 72.9034 42.0537C72.8344 42.0378 72.6177 42.0312 72.793 42.0283C72.6899 42.0334 72.6039 42.0281 72.4977 42.0468C72.587 42.0386 72.5252 42.0531 72.4466 42.0783C72.4789 42.5619 72.408 43.0505 72.3097 43.5328C72.5603 43.5184 72.7949 43.5725 72.9869 43.7465C73.3464 44.0746 73.3552 44.596 73.2972 45.0298C73.2457 45.4363 73.0634 45.8416 72.7901 46.1393C72.6146 46.3297 72.3967 46.4527 72.1576 46.5418C71.9493 46.6236 71.6987 46.6381 71.4778 46.5872C71.2432 46.5332 71.0448 46.3864 70.8836 46.205C70.8666 46.2156 70.8602 46.2429 70.8432 46.2534C70.7535 46.6367 70.6328 47.0272 70.4942 47.3705C70.6111 47.3685 70.6493 47.3917 70.6908 47.4013ZM70.2181 45.2582C70.5903 44.9111 70.8745 44.4428 71.0696 43.9828C71.4618 42.9911 71.59 41.8232 71.2325 40.8031C71.0181 40.7249 70.8707 40.5467 70.8966 40.2496C70.903 40.2223 70.8989 40.178 70.9053 40.1507C70.4147 39.3885 69.6369 38.9207 68.6747 38.9298C68.5856 38.9381 68.5101 38.9496 68.4282 38.9885C68.047 39.0017 67.674 39.1033 67.3191 39.2523C66.2033 39.731 65.2917 40.704 64.9502 41.8515C64.6147 42.5389 64.5985 43.4152 64.9308 44.1698C65.1807 44.718 65.5464 45.2061 66.0642 45.5419C66.5245 45.9365 67.0721 46.2068 67.6879 46.2478C68.29 46.2855 68.8405 46.1094 69.3135 45.8288C69.6376 45.6872 69.9406 45.5116 70.2181 45.2582ZM47.5183 70.6278C47.3631 71.4144 47.0763 72.1417 47.0348 72.9401C46.991 73.81 47.0779 74.6813 47.271 75.5336C47.539 76.7496 48.0207 78.4187 49.3284 78.9219C52.1858 80.013 53.721 74.6393 54.2927 72.8811C55.2892 69.8069 55.93 66.6363 57.1271 63.6372C58.2911 60.7171 59.8679 58.0219 62.0146 55.6887C63.3847 54.1867 64.8492 52.7783 66.2054 51.2731C65.6336 51.6029 65.0045 51.8042 64.3421 51.6516C63.2793 51.4068 62.7181 50.3253 62.6941 49.3098C62.6779 48.7579 62.8264 48.1862 63.2009 47.7675C63.4369 47.5045 63.9074 47.4831 64.1524 47.7415C64.4112 48.0032 64.4351 48.3981 64.1786 48.6853C64.1786 48.6853 64.1786 48.6853 64.1754 48.6989C64.152 48.7369 64.1286 48.7748 64.119 48.8159C64.1158 48.8296 64.119 48.8158 64.1158 48.8295C64.1062 48.8705 64.0965 48.9116 64.0837 48.9664C64.0709 49.0211 64.0613 49.0622 64.0622 49.1202C64.059 49.1338 64.0622 49.1202 64.059 49.1338C64.0471 49.2465 64.0523 49.3487 64.0714 49.454C64.0681 49.4678 64.0787 49.4846 64.0723 49.512C64.0934 49.5457 64.0913 49.6174 64.0986 49.648C64.1166 49.6953 64.1314 49.7564 64.1493 49.8039C64.1568 49.8344 64.1992 49.9019 64.2066 49.9325C64.2171 49.9493 64.2139 49.963 64.2245 49.9799C64.2563 50.0305 64.2774 50.0642 64.3092 50.1149C64.3198 50.1317 64.3305 50.1486 64.3443 50.1517C64.3686 50.1718 64.4004 50.2224 64.4249 50.2424C64.4355 50.2594 64.4493 50.2624 64.463 50.2656C64.5012 50.2889 64.5395 50.3121 64.567 50.3185C64.5809 50.3217 64.5808 50.3217 64.5947 50.3249C64.6085 50.328 64.6222 50.3312 64.6361 50.3344C64.6499 50.3376 64.7051 50.3503 64.7464 50.3598C64.7603 50.363 64.7464 50.3598 64.7741 50.3662C64.8016 50.3725 64.8325 50.3653 64.8633 50.3578C64.8772 50.361 64.9079 50.3537 64.9356 50.3601C65.0524 50.3582 65.1852 50.2878 65.2946 50.2553C65.3116 50.2448 65.3425 50.2375 65.3595 50.2269C65.4105 50.1955 65.4753 50.1671 65.5263 50.1355C65.6422 50.0757 65.7475 49.9989 65.8527 49.9222C65.9037 49.8907 65.958 49.8455 66.0121 49.8003C66.0291 49.7897 66.0292 49.7897 66.0292 49.7897C66.0462 49.7792 66.0494 49.7656 66.0632 49.7687C66.1546 49.6888 66.246 49.6089 66.3237 49.5258C66.5843 49.2829 67.0166 49.2382 67.2753 49.4998C67.3697 49.5937 67.4269 49.7223 67.4564 49.8445C67.4799 49.8066 67.5139 49.7856 67.5373 49.7477C68.0863 49.0807 68.6067 48.3494 69.0199 47.579C68.9881 47.5284 68.9766 47.4536 68.9448 47.403C68.6813 47.4721 68.4179 47.5412 68.1395 47.5493C66.3955 47.6668 64.8444 46.5881 64.0427 45.1049C61.8484 46.648 59.9719 48.6972 58.3333 50.7866C56.2 53.4979 54.3392 56.4739 52.7099 59.5177C51.8301 61.1616 50.9473 62.8194 50.1059 64.4866C49.3677 65.9611 49.0138 67.5964 48.0538 68.9622C48.007 69.0379 47.9358 69.0938 47.8677 69.1358C47.7079 69.4451 47.5343 69.7514 47.3746 70.0609C47.4869 70.2022 47.5589 70.3919 47.5183 70.6278ZM25.7097 59.7745C22.6543 58.9696 19.4717 58.7701 16.3219 58.6792C14.5134 58.6376 12.6929 58.7087 10.8934 59.0009C9.03239 59.308 7.0923 59.8276 5.54755 60.9577C4.10481 62.0246 2.93544 64.2223 3.97476 65.9333C4.58609 66.9253 5.77376 67.4442 6.79165 67.8807C7.9792 68.3995 9.3194 69.1989 10.6532 69.2177C13.6077 67.0996 17.1336 65.6469 20.5006 64.7491C24.0724 63.7831 27.7415 63.2723 31.4165 62.9216C32.9196 62.7775 34.4161 62.6606 35.9233 62.5605C33.4515 62.121 31.0058 61.3843 28.6247 60.6193C27.7713 60.3506 26.9104 60.0512 26.0666 59.7413C25.9677 59.7907 25.8476 59.8063 25.7097 59.7745ZM1.58731 40.7275C2.81544 45.4829 7.38618 48.5124 11.312 51.0038C16.4156 54.2428 21.881 56.9303 27.6056 58.8841C30.7306 59.9504 34.0097 60.9799 37.279 61.4302C38.9981 61.6676 40.7367 61.6354 42.4731 61.6747C44.0204 61.7139 45.6065 62.0216 47.1184 61.5909C47.8197 61.3918 48.2092 62.275 47.8071 62.6873C47.882 63.0508 47.6966 63.4698 47.2016 63.4712C42.8506 63.4786 38.4991 63.6734 34.1741 64.0042C30.8825 64.2702 27.5813 64.5771 24.3337 65.2139C18.27 66.3848 12.0146 68.6225 8.0386 73.5493C6.22027 75.7849 4.87682 78.6637 5.82943 81.5522C6.68376 84.115 8.98352 85.9723 11.2735 87.25C14.1916 88.8889 17.4443 89.7827 20.8059 89.5906C24.2291 89.3838 27.5179 88.1362 30.4304 86.3836C33.9999 84.2484 37.1307 81.3775 39.8795 78.2742C42.706 75.0878 45.1486 71.5534 47.0329 67.7315C47.1096 67.5905 47.201 67.5106 47.3137 67.4644C47.9228 66.2919 48.2826 65.0043 48.8781 63.8286C49.7461 62.1097 50.6419 60.3974 51.5619 58.705C52.0986 57.7177 52.6629 56.7369 53.2549 55.7624C53.2391 55.6433 53.2404 55.5138 53.3 55.3833C59.6522 41.5542 62.7778 23.4904 52.934 10.431C48.9826 5.19253 42.6855 1.08711 35.8839 1.30897C29.5944 1.51896 25.0505 6.19954 22.5564 11.5688C20.8315 15.2687 19.9993 19.3185 20.0507 23.3843C20.1015 27.825 21.0306 32.1797 21.6955 36.5456C21.8038 37.263 20.8095 37.4091 20.4577 36.924C18.0157 33.5626 13.2784 31.8652 9.22034 31.9256C7.13123 31.9636 4.93004 32.4808 3.37732 33.9553C1.56173 35.7443 0.980205 38.3514 1.58731 40.7275Z"
    fill="#2F2B27"
  />
<path
    d="M68.6315 43.7098C68.077 44.4622 66.9952 44.9198 66.1475 44.3783C65.3623 43.88 65.0623 42.801 65.3089 41.9344C65.4487 41.4617 65.7372 41.0377 66.1136 40.7348C66.0842 40.4251 66.2578 40.1189 66.5724 40.0182C67.0919 39.8493 67.6315 39.8438 68.1504 40.05C68.6143 40.2434 68.9335 40.6199 69.1335 41.07C69.1906 41.1986 69.1926 41.3144 69.219 41.4503C69.2337 41.5114 69.2485 41.5726 69.2633 41.6337C69.2674 41.6779 69.2855 41.7253 69.2896 41.7696C69.3275 41.9803 69.3346 42.1983 69.2727 42.4005C69.2342 42.5648 69.1576 42.7057 69.081 42.8468C68.9626 43.1658 68.8092 43.4478 68.6315 43.7098Z"
    fill="#2F2B27"
  />
<path
    d="M36.0757 36.9447C31.1429 35.2744 27.1849 30.8711 27.1673 25.5435C27.1565 22.0496 28.6015 18.6749 30.7413 15.9363C32.5853 13.5911 35.4507 11.2938 38.6466 11.8714C38.8155 11.8959 38.9268 11.9793 39.0043 12.0836C39.0937 11.8879 39.2766 11.728 39.5548 11.72C44.7578 11.678 49.5234 15.0555 51.7384 19.6343C53.9502 24.2267 53.3058 29.8346 49.7849 33.6255C46.3693 37.3399 40.8322 38.56 36.0757 36.9447ZM51.0941 21.5777C49.4433 16.8259 44.7845 13.0547 39.6261 13.0926C39.3649 13.0901 39.1877 12.9772 39.0818 12.8084C38.9624 13.0695 38.7114 13.2713 38.3494 13.2024C35.8224 12.75 33.4778 14.7489 31.9925 16.5563C30.1839 18.7509 28.882 21.4518 28.5826 24.2826C28.0562 29.1386 31.1043 33.39 35.4844 35.308C39.5356 37.0782 44.5237 36.525 47.9083 33.626C51.3505 30.6681 52.5747 25.8141 51.0941 21.5777Z"
    fill="#2F2B27"
  />
<path
    d="M40.4368 74.2185C37.3988 77.5005 34.0096 80.5427 30.0727 82.6942C26.5514 84.624 21.0342 86.8153 17.4808 83.7893C15.9884 82.5221 15.1768 80.4596 15.7011 78.5317C16.264 76.4397 18.0027 74.7917 19.725 73.5871C23.6245 70.85 28.3712 69.8372 33.0216 69.2352C35.6038 68.8924 38.3823 68.768 40.8756 69.6742C41.5985 69.9417 42.4986 70.3223 42.5067 71.2186C42.5189 72.3467 41.1696 73.4497 40.4707 74.1976C40.4675 74.2112 40.4537 74.2081 40.4368 74.2185ZM41.1293 71.2619C40.9598 70.992 40.2324 70.8677 39.949 70.7735C39.4724 70.6349 38.9999 70.5405 38.5072 70.4703C36.4813 70.1766 34.3952 70.3884 32.3791 70.6741C28.4328 71.2509 24.5774 72.1227 21.1557 74.2485C19.608 75.2048 18.0214 76.5129 17.249 78.196C16.4403 79.9717 17.1648 81.9709 18.7404 83.0696C20.3816 84.1979 22.6333 84.0243 24.4745 83.554C26.3604 83.0797 28.1681 82.2554 29.8496 81.2867C33.6314 79.1139 36.8601 76.1356 39.7897 72.9442C40.0864 72.6087 40.3938 72.2899 40.6769 71.9511C40.8183 71.7818 41.0555 71.5768 41.1068 71.3578C41.1197 71.303 41.1229 71.2892 41.1293 71.2619Z"
    fill="#2F2B27"
  />
<path
    d="M13.1277 39.029C15.2476 38.1758 17.7631 38.5534 19.9364 39.0253C22.4271 39.5704 24.8706 40.3786 27.2279 41.3689C33.1366 43.8412 38.6472 47.5778 42.5989 52.6289C42.6901 52.7364 42.7197 52.8586 42.7249 52.9608C43.2209 53.6377 43.6062 54.4767 43.4245 55.315C43.1424 56.5195 41.84 56.7388 40.7905 56.8721C37.7344 57.25 34.3952 56.7259 31.3819 56.1759C26.1073 55.2203 20.4341 53.6679 16.0271 50.5607C13.9541 49.1019 11.9697 47.2021 10.9675 44.8359C9.93446 42.4772 10.622 40.0388 13.1277 39.029ZM14.7471 47.8276C18.1078 51.0545 22.7029 52.6759 27.1427 53.843C29.9804 54.5834 32.8288 55.1531 35.7586 55.4386C37.2665 55.5841 38.7913 55.7189 40.3081 55.5779C40.7818 55.5428 41.916 55.5444 42.0995 55.0097C42.2563 54.5264 41.7603 53.8494 41.473 53.5236C41.3818 53.416 41.3384 53.2906 41.3227 53.1716C38.3132 49.3764 34.3275 46.395 30.0244 44.1484C26.1616 42.1331 21.7504 40.4098 17.3809 39.9369C15.5937 39.7416 12.5011 39.7792 11.8946 41.9334C11.268 44.1117 13.3218 46.4604 14.7471 47.8276Z"
    fill="#2F2B27"
  />
<path
    d="M46.4287 43.9174C47.1738 43.4688 48.0291 43.2331 48.9072 43.3344C49.8268 43.4452 50.5853 43.9952 51.0929 44.7468C51.2233 44.9356 51.223 45.1231 51.1676 45.2978C51.7936 46.3511 52.0966 47.6038 51.8314 48.7978C51.4253 50.5942 49.547 51.7196 47.7399 51.3609C46.0295 51.0245 44.4854 49.5435 44.2841 47.7948C44.0995 46.2229 45.1223 44.713 46.4287 43.9174ZM45.6371 47.111C45.6307 47.1384 45.6252 47.2237 45.6188 47.2511C45.5865 47.5754 45.6106 47.7829 45.6973 48.0337C45.785 48.3425 45.8984 48.5418 46.1092 48.8212C46.4611 49.3063 47.0181 49.7231 47.6337 49.9515C47.8067 50.0203 48.2239 50.1019 48.413 50.1022C48.7602 50.11 48.959 50.0693 49.3001 49.917C49.5902 49.7963 49.8177 49.6323 50.0102 49.4314C50.2027 49.2305 50.3571 49.0065 50.4424 48.7663C50.5342 48.4989 50.5876 48.2083 50.5827 47.9187C50.5759 47.5132 50.5412 47.2887 50.4388 46.9189C50.3363 46.549 50.2219 46.2919 50.0451 45.9914C49.8469 45.6572 49.653 45.3673 49.4187 45.1257C49.3243 45.0319 49.2777 44.9201 49.2482 44.7979C49.2099 44.7747 49.1717 44.7515 49.1336 44.7283C49.1197 44.7251 49.1059 44.7219 49.1091 44.7082C49.0954 44.705 49.0816 44.7018 49.0539 44.6954C48.9712 44.6764 48.9021 44.6604 48.8193 44.6414C48.8055 44.6382 48.7333 44.6361 48.6919 44.6265C48.6642 44.6202 48.5751 44.6284 48.5474 44.622C48.4168 44.6209 48.283 44.6332 48.146 44.6594C48.1151 44.6667 48.0706 44.6709 48.0535 44.6814C47.9781 44.6928 47.9133 44.7212 47.8347 44.7464C47.7698 44.7748 47.6944 44.7862 47.6296 44.8146C47.5987 44.8218 47.5648 44.8429 47.5339 44.8502C47.5169 44.8607 47.5201 44.8471 47.5169 44.8607C47.2544 44.9878 46.9994 45.1454 46.7824 45.3263C46.7622 45.3505 46.6909 45.4061 46.6739 45.4167C46.6165 45.4756 46.5623 45.5208 46.5048 45.5797C46.3932 45.6838 46.292 45.8048 46.2048 45.929C46.1846 45.9532 46.1814 45.9669 46.1814 45.9669C46.1814 45.9669 46.1782 45.9805 46.158 46.0048C46.1144 46.0669 46.0707 46.1289 46.0409 46.1942C45.9674 46.3216 45.8907 46.4625 45.8311 46.5931C45.8279 46.6068 45.8215 46.6341 45.8045 46.6447C45.8013 46.6583 45.7949 46.6857 45.7917 46.6994C45.7756 46.7679 45.7489 46.8194 45.7329 46.8878C45.6724 46.9604 45.6531 47.0426 45.6371 47.111Z"
    fill="#2F2B27"
  />
</svg>
