<svg width="73" height="74" viewBox="0 0 73 74" fill="none" xmlns="http://www.w3.org/2000/svg">
<path d="M62.6846 1.14478H10.6846C5.43787 1.14478 1.18457 5.39807 1.18457 10.6448V63.6448C1.18457 68.8915 5.43787 73.1448 10.6846 73.1448H62.6846C67.9313 73.1448 72.1846 68.8915 72.1846 63.6448V10.6448C72.1846 5.39807 67.9313 1.14478 62.6846 1.14478Z" fill="#F5E6F1" stroke="#D18FC0" stroke-dasharray="4 4"/>
<path d="M60.7755 30.084L57.8473 29.5981C57.9572 28.1995 58.0797 26.8009 58.1642 25.4024C58.2149 24.6249 58.4093 23.8221 57.7966 23.2348C57.3276 22.7869 56.6389 22.7869 56.0262 22.7151C54.3361 22.5207 52.646 22.3813 50.9897 22.2165C44.1334 21.5432 37.2729 20.9066 30.4082 20.3066C27.0449 20.025 23.683 19.7433 20.3224 19.4616C19.0549 19.3559 16.1225 18.3926 15.2817 19.6095C14.7366 20.3869 14.9394 22.2799 14.8253 23.2094C14.6366 24.846 14.4507 26.477 14.2676 28.1023L13 38.6656C13.0009 38.7345 13.0241 38.8013 13.0659 38.8561C13.1078 38.9109 13.1661 38.9507 13.2324 38.9698C13.8728 39.1539 14.5318 39.2659 15.1972 39.3036C14.7718 41.3515 14.3648 43.4007 13.976 45.4514C13.9572 45.5319 13.9693 45.6166 14.01 45.6886C14.0507 45.7607 14.117 45.8147 14.1958 45.8401C20.7154 48.2105 27.5139 49.6429 34.2575 51.1809L55.3502 56.0316C55.4308 56.0525 55.5164 56.0413 55.589 56.0003C55.6615 55.9593 55.7153 55.8917 55.7389 55.8118C57.2262 47.4373 58.8825 39.0994 60.7079 30.7981C60.712 30.7686 60.712 30.7388 60.7079 30.7093H60.7712C61.067 30.629 61.0839 30.1347 60.7755 30.084ZM13.8662 38.205C13.5324 37.6895 13.8662 36.8276 13.9253 36.2402C14.0831 34.8769 14.2422 33.5206 14.4028 32.1713L15.3662 24.0545C15.4633 23.2094 15.3662 20.294 16.1183 19.7531C16.3507 19.5883 18.3408 19.9348 18.6535 19.9602L20.3436 20.0954C23.2844 20.3404 26.2266 20.5911 29.1702 20.8475C34.7589 21.3263 40.3546 21.832 45.9573 22.3644C48.7573 22.632 51.5559 22.9038 54.353 23.1798C54.9699 23.2432 56.3304 23.1207 56.8628 23.4503C57.6192 23.9193 57.5685 25.0432 57.5135 25.7657C57.4149 27.008 57.3206 28.2502 57.2304 29.4924L55.9628 29.2812L56.4192 27.1685C56.4292 27.1162 56.4265 27.0623 56.4114 27.0113C56.3963 26.9602 56.3693 26.9135 56.3325 26.8751C56.2957 26.8366 56.2502 26.8075 56.1999 26.7902C56.1495 26.7729 56.0958 26.7679 56.0431 26.7756C56.0141 26.7059 55.9611 26.6488 55.8937 26.6147C55.8263 26.5807 55.7489 26.5718 55.6755 26.5897C55.2151 26.6635 54.744 26.5541 54.3633 26.2847C53.9826 26.0154 53.7226 25.6076 53.6389 25.1488C53.656 25.1114 53.6638 25.0704 53.6617 25.0293C53.6597 24.9882 53.6478 24.9482 53.6271 24.9126C53.6064 24.877 53.5775 24.8469 53.5428 24.8248C53.5081 24.8027 53.4687 24.7892 53.4277 24.7855C42.132 23.0953 30.7956 21.7094 19.4182 20.6278C19.3796 20.6225 19.3402 20.6259 19.303 20.6376C19.2657 20.6493 19.2315 20.669 19.2027 20.6954C19.1639 20.6825 19.1229 20.6779 19.0822 20.6817C19.0415 20.6856 19.002 20.6978 18.9663 20.7177C18.9306 20.7375 18.8993 20.7645 18.8746 20.7971C18.8498 20.8296 18.8321 20.8669 18.8225 20.9066C18.7155 21.3012 18.4835 21.6503 18.1613 21.9018C17.839 22.1532 17.4438 22.2933 17.0352 22.301C16.9577 22.3009 16.8833 22.3308 16.8274 22.3843C16.7715 22.4379 16.7384 22.511 16.7352 22.5883C16.6947 22.6147 16.661 22.6503 16.6367 22.6921C16.6125 22.7339 16.5985 22.7809 16.5957 22.8291C16.3802 26.1376 16 29.4291 15.4591 32.6994C15.3155 33.5445 14.7155 35.0529 14.9394 35.9318C15.0197 36.2318 15.5394 36.5698 15.738 36.8402C15.6028 37.4614 15.4633 38.0825 15.3155 38.7078C14.745 38.712 14.1746 38.6782 13.8662 38.205ZM43.8109 27.2615C43.5683 26.4872 43.1735 25.7692 42.6496 25.1495C42.1257 24.5299 41.4834 24.0211 40.7602 23.6531C44.8616 24.1855 48.9559 24.7573 53.0432 25.3685C53.1781 25.9591 53.5303 26.4773 54.0297 26.8202C54.5291 27.1631 55.1393 27.3055 55.7389 27.2192C55.5995 27.8742 55.46 28.5248 55.3164 29.1798L43.8109 27.2615ZM31.7984 25.2629L19.6295 23.239C19.5796 23.2261 19.5273 23.2261 19.4774 23.239C19.4373 23.2126 19.3916 23.1961 19.3439 23.1908C19.2962 23.1854 19.2479 23.1915 19.203 23.2084C19.1581 23.2253 19.1178 23.2525 19.0855 23.288C19.0531 23.3234 19.0296 23.366 19.0168 23.4122C17.8985 27.5587 16.8788 31.7164 15.9577 35.8853C15.5605 34.3938 16.1056 32.767 16.3338 31.2671C16.7563 28.491 17.0394 25.7023 17.238 22.901C17.7176 22.8565 18.1746 22.6762 18.5554 22.3814C18.9363 22.0866 19.2253 21.6893 19.3887 21.2362C19.3887 21.2362 19.414 21.2362 19.4351 21.2362C24.6238 21.7461 29.8125 22.3122 35.0011 22.9348C33.5603 23.1841 32.2251 23.7798 31.7688 25.0136C31.7524 25.0543 31.7466 25.0985 31.7518 25.142C31.7569 25.1856 31.773 25.2272 31.7984 25.2629ZM32.3814 25.1826C33.142 23.1207 37.6715 23.2982 39.1419 23.6953C40.029 23.9092 40.8512 24.3344 41.5384 24.9348C42.2256 25.5352 42.7574 26.2928 43.0884 27.1432L32.2505 25.3221C32.308 25.2909 32.3539 25.242 32.3814 25.1826ZM55.7093 52.402C55.5614 53.2175 55.6586 54.9372 54.7079 55.233C54.3403 55.3555 52.6544 54.764 52.2742 54.6752L46.5954 53.3696L35.6434 50.8344C32.0857 50.0147 28.5195 49.2246 24.9745 48.3542C23.183 47.9317 21.3957 47.45 19.6253 46.9345C18.438 46.6049 15.5352 46.2204 14.9225 45.181C14.3098 44.1416 15.4169 41.3571 15.6788 40.1106C15.7295 39.8571 15.7845 39.6078 15.8394 39.3543C15.9022 39.3425 15.96 39.3122 16.0055 39.2674C16.051 39.2225 16.0821 39.1652 16.0948 39.1026C16.1075 39.04 16.1012 38.975 16.0768 38.916C16.0524 38.8569 16.0109 38.8065 15.9577 38.7712C16.0591 38.2768 16.1732 37.7867 16.2788 37.2923C16.3336 37.2711 16.3802 37.2331 16.412 37.1838C16.4439 37.1344 16.4594 37.0763 16.4563 37.0177C16.4605 36.909 16.4462 36.8004 16.414 36.6966C16.5704 35.9825 16.7183 35.2684 16.8831 34.5544C17.7028 30.9741 18.5943 27.4122 19.5577 23.8686L43.3715 27.8277C43.4149 27.8667 43.4686 27.8926 43.5262 27.9023C43.5838 27.912 43.6429 27.9052 43.6968 27.8826L59.5501 30.5192C59.5437 30.5711 59.5497 30.6238 59.5677 30.6729C59.5857 30.722 59.6151 30.7661 59.6535 30.8016C59.6918 30.8371 59.7381 30.863 59.7885 30.8771C59.8389 30.8911 59.8918 30.893 59.9431 30.8826L60.0487 30.8572C58.4769 38.0149 57.0304 45.1965 55.7093 52.402Z" fill="#D18FC0"/>
<path d="M57.7079 36.0543C57.72 36.0074 57.7214 35.9584 57.7118 35.9109C57.7023 35.8634 57.6822 35.8186 57.6529 35.78C57.6236 35.7414 57.586 35.7099 57.5429 35.6879C57.4997 35.6659 57.4521 35.6539 57.4037 35.6529L56.8333 35.6022C56.8101 35.5546 56.7718 35.516 56.7245 35.4923C56.6771 35.4687 56.6233 35.4612 56.5713 35.4712C55.1629 34.5501 54.8431 33.5051 55.6121 32.3361C55.6357 32.2939 55.6494 32.2471 55.6523 32.1989C55.6552 32.1507 55.6473 32.1025 55.629 32.0579C55.6107 32.0132 55.5826 31.9733 55.5468 31.941C55.511 31.9087 55.4683 31.8848 55.422 31.8713C45.3235 29.6544 35.1828 27.6432 24.9999 25.8376C24.9242 25.825 24.8464 25.8392 24.7801 25.8777C24.7138 25.9163 24.663 25.9768 24.6365 26.0488C24.606 26.0845 24.5841 26.1266 24.5724 26.172C24.5607 26.2174 24.5595 26.2649 24.5689 26.3108C25.0125 28.9685 21.8393 28.7995 20.2422 28.1868C20.2019 28.176 20.16 28.1731 20.1186 28.1785C20.0773 28.1839 20.0375 28.1974 20.0014 28.2182C19.9652 28.239 19.9336 28.2667 19.9082 28.2997C19.8828 28.3328 19.8642 28.3705 19.8534 28.4108C18.6901 32.6192 17.5323 36.829 16.3802 41.0402C16.3689 41.0802 16.3659 41.122 16.3714 41.1632C16.3768 41.2044 16.3907 41.2441 16.4121 41.2797C16.4334 41.3153 16.4619 41.3462 16.4957 41.3704C16.5294 41.3946 16.5678 41.4117 16.6084 41.4205C16.6265 41.4853 16.6635 41.5432 16.7147 41.5869C16.7658 41.6305 16.8289 41.6579 16.8957 41.6655C17.3266 41.7089 17.7433 41.8436 18.118 42.0607C18.4927 42.2779 18.8168 42.5724 19.0687 42.9246C19.3207 43.2769 19.4946 43.6788 19.5789 44.1036C19.6632 44.5284 19.6559 44.9663 19.5577 45.388C19.538 45.4692 19.5502 45.5548 19.5919 45.6272C19.6336 45.6995 19.7015 45.7531 19.7816 45.7767C30.0152 48.9279 40.4068 51.5413 50.9136 53.6062C50.9592 53.6162 51.0065 53.6156 51.0519 53.6047C51.0973 53.5937 51.1396 53.5726 51.1756 53.5429C51.2507 53.5345 51.3207 53.5005 51.3738 53.4467C51.4269 53.3928 51.4598 53.3223 51.4671 53.2471C51.4962 52.8928 51.607 52.5501 51.7908 52.2459C51.9747 51.9417 52.2266 51.6843 52.5267 51.4939C52.8269 51.3035 53.1671 51.1853 53.5206 51.1486C53.8742 51.1119 54.2314 51.1576 54.5643 51.2823C54.9319 51.4049 55.0924 50.8598 54.784 50.6992C54.795 50.6792 54.8035 50.6579 54.8093 50.6358C55.7051 45.7655 56.6713 40.905 57.7079 36.0543ZM23.1027 46.1232C22.6126 45.9796 21.121 45.7345 20.7365 45.4091C19.9168 44.7162 20.5633 45.2697 20.2802 44.3486C19.7394 42.5866 18.9661 41.3444 17.0352 41.0529C17.6323 38.8698 18.2309 36.6853 18.8309 34.4994L19.676 31.3389C19.7645 30.8009 19.9061 30.273 20.0985 29.7629C20.521 28.9685 20.3943 29.1671 21.3112 29.2136C23.2252 29.3065 25.3294 28.7277 25.1815 26.5178C29.5054 27.2868 33.8223 28.0939 38.1321 28.9389C33.9997 28.4615 31.2998 32.4797 30.1378 36.2233C28.7561 40.7824 29.5209 45.8993 33.2814 48.9542C31.7378 48.5542 30.1885 48.1415 28.6336 47.7162C26.7886 47.2035 24.9449 46.6725 23.1027 46.1232ZM34.3504 48.9838C34.3298 48.9567 34.3056 48.9326 34.2786 48.9119C30.4125 46.2711 29.428 41.4754 30.5688 37.1276C31.5575 33.3501 34.1265 28.5798 38.7997 29.6953C43.3165 30.7769 44.6433 35.9529 43.6081 39.9543C42.6067 43.7993 39.3828 49.2499 34.7349 48.6077C34.6841 48.6033 34.6329 48.61 34.5848 48.6273C34.5368 48.6445 34.493 48.6719 34.4565 48.7076C34.42 48.7433 34.3916 48.7864 34.3733 48.8341C34.355 48.8818 34.3472 48.9328 34.3504 48.9838ZM54.2093 50.4711C54.205 50.4976 54.205 50.5248 54.2093 50.5513C53.4498 50.4353 52.6751 50.623 52.0528 51.0737C51.4306 51.5244 51.0107 52.2019 50.884 52.9598C45.3658 51.8696 39.8729 50.6316 34.4054 49.2457C34.4098 49.2107 34.4098 49.1752 34.4054 49.1401C34.4497 49.1854 34.5075 49.2151 34.5702 49.2246C39.4461 49.9049 42.6954 44.8768 44.0137 40.8205C45.3996 36.5402 44.2883 30.8614 39.556 29.2558C39.4123 29.2051 39.2729 29.1671 39.1335 29.1291C41.5799 29.6108 44.0264 30.0967 46.4686 30.6037C48.201 30.9643 49.9319 31.3304 51.6615 31.7023C52.1854 31.8121 54.1417 31.922 54.4544 32.3065C54.5319 32.4082 54.6181 32.503 54.7122 32.5896C54.6446 32.5896 54.5643 32.7417 54.5854 33.2487C54.6403 34.6093 54.5854 36.3121 56.529 36.105C56.5559 36.1408 56.5902 36.1703 56.6296 36.1914C56.669 36.2126 56.7126 36.2249 56.7572 36.2276C56.9009 36.2402 54.4079 49.2499 54.1967 50.4668L54.2093 50.4711Z" fill="#D18FC0"/>
<path d="M60.7755 30.084L57.8473 29.5981C57.9572 28.1995 58.0797 26.8009 58.1642 25.4024C58.2149 24.6249 58.4093 23.8221 57.7966 23.2348C57.3276 22.7869 56.6389 22.7869 56.0262 22.7151C54.3361 22.5207 52.646 22.3813 50.9897 22.2165C44.1334 21.5432 37.2729 20.9066 30.4082 20.3066C27.0449 20.025 23.683 19.7433 20.3224 19.4616C19.0549 19.3559 16.1225 18.3926 15.2817 19.6095C14.7366 20.3869 14.9394 22.2799 14.8253 23.2094C14.6366 24.846 14.4507 26.477 14.2676 28.1023L13 38.6656C13.0009 38.7345 13.0241 38.8013 13.0659 38.8561C13.1078 38.9109 13.1661 38.9507 13.2324 38.9698C13.8728 39.1539 14.5318 39.2659 15.1972 39.3036C14.7718 41.3515 14.3648 43.4007 13.976 45.4514C13.9572 45.5319 13.9693 45.6166 14.01 45.6886C14.0507 45.7607 14.117 45.8147 14.1958 45.8401C20.7154 48.2105 27.5139 49.6429 34.2575 51.1809L55.3502 56.0316C55.4308 56.0525 55.5164 56.0413 55.589 56.0003C55.6615 55.9593 55.7153 55.8917 55.7389 55.8118C57.2262 47.4373 58.8825 39.0994 60.7079 30.7981C60.712 30.7686 60.712 30.7388 60.7079 30.7093H60.7712C61.067 30.629 61.0839 30.1347 60.7755 30.084ZM13.8662 38.205C13.5324 37.6895 13.8662 36.8276 13.9253 36.2402C14.0831 34.8769 14.2422 33.5206 14.4028 32.1713L15.3662 24.0545C15.4633 23.2094 15.3662 20.294 16.1183 19.7531C16.3507 19.5883 18.3408 19.9348 18.6535 19.9602L20.3436 20.0954C23.2844 20.3404 26.2266 20.5911 29.1702 20.8475C34.7589 21.3263 40.3546 21.832 45.9573 22.3644C48.7573 22.632 51.5559 22.9038 54.353 23.1798C54.9699 23.2432 56.3304 23.1207 56.8628 23.4503C57.6192 23.9193 57.5685 25.0432 57.5135 25.7657C57.4149 27.008 57.3206 28.2502 57.2304 29.4924L55.9628 29.2812L56.4192 27.1685C56.4292 27.1162 56.4265 27.0623 56.4114 27.0113C56.3963 26.9602 56.3693 26.9135 56.3325 26.8751C56.2957 26.8366 56.2502 26.8075 56.1999 26.7902C56.1495 26.7729 56.0958 26.7679 56.0431 26.7756C56.0141 26.7059 55.9611 26.6488 55.8937 26.6147C55.8263 26.5807 55.7489 26.5718 55.6755 26.5897C55.2151 26.6635 54.744 26.5541 54.3633 26.2847C53.9826 26.0154 53.7226 25.6076 53.6389 25.1488C53.656 25.1114 53.6638 25.0704 53.6617 25.0293C53.6597 24.9882 53.6478 24.9482 53.6271 24.9126C53.6064 24.877 53.5775 24.8469 53.5428 24.8248C53.5081 24.8027 53.4687 24.7892 53.4277 24.7855C42.132 23.0953 30.7956 21.7094 19.4182 20.6278C19.3796 20.6225 19.3402 20.6259 19.303 20.6376C19.2657 20.6493 19.2315 20.669 19.2027 20.6954C19.1639 20.6825 19.1229 20.6779 19.0822 20.6817C19.0415 20.6856 19.002 20.6978 18.9663 20.7177C18.9306 20.7375 18.8993 20.7645 18.8746 20.7971C18.8498 20.8296 18.8321 20.8669 18.8225 20.9066C18.7155 21.3012 18.4835 21.6503 18.1613 21.9018C17.839 22.1532 17.4438 22.2933 17.0352 22.301C16.9577 22.3009 16.8833 22.3308 16.8274 22.3843C16.7715 22.4379 16.7384 22.511 16.7352 22.5883C16.6947 22.6147 16.661 22.6503 16.6367 22.6921C16.6125 22.7339 16.5985 22.7809 16.5957 22.8291C16.3802 26.1376 16 29.4291 15.4591 32.6994C15.3155 33.5445 14.7155 35.0529 14.9394 35.9318C15.0197 36.2318 15.5394 36.5698 15.738 36.8402C15.6028 37.4614 15.4633 38.0825 15.3155 38.7078C14.745 38.712 14.1746 38.6782 13.8662 38.205ZM43.8109 27.2615C43.5683 26.4872 43.1735 25.7692 42.6496 25.1495C42.1257 24.5299 41.4834 24.0211 40.7602 23.6531C44.8616 24.1855 48.9559 24.7573 53.0432 25.3685C53.1781 25.9591 53.5303 26.4773 54.0297 26.8202C54.5291 27.1631 55.1393 27.3055 55.7389 27.2192C55.5995 27.8742 55.46 28.5248 55.3164 29.1798L43.8109 27.2615ZM31.7984 25.2629L19.6295 23.239C19.5796 23.2261 19.5273 23.2261 19.4774 23.239C19.4373 23.2126 19.3916 23.1961 19.3439 23.1908C19.2962 23.1854 19.2479 23.1915 19.203 23.2084C19.1581 23.2253 19.1178 23.2525 19.0855 23.288C19.0531 23.3234 19.0296 23.366 19.0168 23.4122C17.8985 27.5587 16.8788 31.7164 15.9577 35.8853C15.5605 34.3938 16.1056 32.767 16.3338 31.2671C16.7563 28.491 17.0394 25.7023 17.238 22.901C17.7176 22.8565 18.1746 22.6762 18.5554 22.3814C18.9363 22.0866 19.2253 21.6893 19.3887 21.2362C19.3887 21.2362 19.414 21.2362 19.4351 21.2362C24.6238 21.7461 29.8125 22.3122 35.0011 22.9348C33.5603 23.1841 32.2251 23.7798 31.7688 25.0136C31.7524 25.0543 31.7466 25.0985 31.7518 25.142C31.7569 25.1856 31.773 25.2272 31.7984 25.2629ZM32.3814 25.1826C33.142 23.1207 37.6715 23.2982 39.1419 23.6953C40.029 23.9092 40.8512 24.3344 41.5384 24.9348C42.2256 25.5352 42.7574 26.2928 43.0884 27.1432L32.2505 25.3221C32.308 25.2909 32.3539 25.242 32.3814 25.1826ZM55.7093 52.402C55.5614 53.2175 55.6586 54.9372 54.7079 55.233C54.3403 55.3555 52.6544 54.764 52.2742 54.6752L46.5954 53.3696L35.6434 50.8344C32.0857 50.0147 28.5195 49.2246 24.9745 48.3542C23.183 47.9317 21.3957 47.45 19.6253 46.9345C18.438 46.6049 15.5352 46.2204 14.9225 45.181C14.3098 44.1416 15.4169 41.3571 15.6788 40.1106C15.7295 39.8571 15.7845 39.6078 15.8394 39.3543C15.9022 39.3425 15.96 39.3122 16.0055 39.2674C16.051 39.2225 16.0821 39.1652 16.0948 39.1026C16.1075 39.04 16.1012 38.975 16.0768 38.916C16.0524 38.8569 16.0109 38.8065 15.9577 38.7712C16.0591 38.2768 16.1732 37.7867 16.2788 37.2923C16.3336 37.2711 16.3802 37.2331 16.412 37.1838C16.4439 37.1344 16.4594 37.0763 16.4563 37.0177C16.4605 36.909 16.4462 36.8004 16.414 36.6966C16.5704 35.9825 16.7183 35.2684 16.8831 34.5544C17.7028 30.9741 18.5943 27.4122 19.5577 23.8686L43.3715 27.8277C43.4149 27.8667 43.4686 27.8926 43.5262 27.9023C43.5838 27.912 43.6429 27.9052 43.6968 27.8826L59.5501 30.5192C59.5437 30.5711 59.5497 30.6238 59.5677 30.6729C59.5857 30.722 59.6151 30.7661 59.6535 30.8016C59.6918 30.8371 59.7381 30.863 59.7885 30.8771C59.8389 30.8911 59.8918 30.893 59.9431 30.8826L60.0487 30.8572C58.4769 38.0149 57.0304 45.1965 55.7093 52.402Z" stroke="#D18FC0" stroke-width="0.5"/>
<path d="M57.7079 36.0543C57.72 36.0074 57.7214 35.9584 57.7118 35.9109C57.7023 35.8634 57.6822 35.8186 57.6529 35.78C57.6236 35.7414 57.586 35.7099 57.5429 35.6879C57.4997 35.6659 57.4521 35.6539 57.4037 35.6529L56.8333 35.6022C56.8101 35.5546 56.7718 35.516 56.7245 35.4923C56.6771 35.4687 56.6233 35.4612 56.5713 35.4712C55.1629 34.5501 54.8431 33.5051 55.6121 32.3361C55.6357 32.2939 55.6494 32.2471 55.6523 32.1989C55.6552 32.1507 55.6473 32.1025 55.629 32.0579C55.6107 32.0132 55.5826 31.9733 55.5468 31.941C55.511 31.9087 55.4683 31.8848 55.422 31.8713C45.3235 29.6544 35.1828 27.6432 24.9999 25.8376C24.9242 25.825 24.8464 25.8392 24.7801 25.8777C24.7138 25.9163 24.663 25.9768 24.6365 26.0488C24.606 26.0845 24.5841 26.1266 24.5724 26.172C24.5607 26.2174 24.5595 26.2649 24.5689 26.3108C25.0125 28.9685 21.8393 28.7995 20.2422 28.1868C20.2019 28.176 20.16 28.1731 20.1186 28.1785C20.0773 28.1839 20.0375 28.1974 20.0014 28.2182C19.9652 28.239 19.9336 28.2667 19.9082 28.2997C19.8828 28.3328 19.8642 28.3705 19.8534 28.4108C18.6901 32.6192 17.5323 36.829 16.3802 41.0402C16.3689 41.0802 16.3659 41.122 16.3714 41.1632C16.3768 41.2044 16.3907 41.2441 16.4121 41.2797C16.4334 41.3153 16.4619 41.3462 16.4957 41.3704C16.5294 41.3946 16.5678 41.4117 16.6084 41.4205C16.6265 41.4853 16.6635 41.5432 16.7147 41.5869C16.7658 41.6305 16.8289 41.6579 16.8957 41.6655C17.3266 41.7089 17.7433 41.8436 18.118 42.0607C18.4927 42.2779 18.8168 42.5724 19.0687 42.9246C19.3207 43.2769 19.4946 43.6788 19.5789 44.1036C19.6632 44.5284 19.6559 44.9663 19.5577 45.388C19.538 45.4692 19.5502 45.5548 19.5919 45.6272C19.6336 45.6995 19.7015 45.7531 19.7816 45.7767C30.0152 48.9279 40.4068 51.5413 50.9136 53.6062C50.9592 53.6162 51.0065 53.6156 51.0519 53.6047C51.0973 53.5937 51.1396 53.5726 51.1756 53.5429C51.2507 53.5345 51.3207 53.5005 51.3738 53.4467C51.4269 53.3928 51.4598 53.3223 51.4671 53.2471C51.4962 52.8928 51.607 52.5501 51.7908 52.2459C51.9747 51.9417 52.2266 51.6843 52.5267 51.4939C52.8269 51.3035 53.1671 51.1853 53.5206 51.1486C53.8742 51.1119 54.2314 51.1576 54.5643 51.2823C54.9319 51.4049 55.0924 50.8598 54.784 50.6992C54.795 50.6792 54.8035 50.6579 54.8093 50.6358C55.7051 45.7655 56.6713 40.905 57.7079 36.0543ZM23.1027 46.1232C22.6126 45.9796 21.121 45.7345 20.7365 45.4091C19.9168 44.7162 20.5633 45.2697 20.2802 44.3486C19.7394 42.5866 18.9661 41.3444 17.0352 41.0529C17.6323 38.8698 18.2309 36.6853 18.8309 34.4994L19.676 31.3389C19.7645 30.8009 19.9061 30.273 20.0985 29.7629C20.521 28.9685 20.3943 29.1671 21.3112 29.2136C23.2252 29.3065 25.3294 28.7277 25.1815 26.5178C29.5054 27.2868 33.8223 28.0939 38.1321 28.9389C33.9997 28.4615 31.2998 32.4797 30.1378 36.2233C28.7561 40.7824 29.5209 45.8993 33.2814 48.9542C31.7378 48.5542 30.1885 48.1415 28.6336 47.7162C26.7886 47.2035 24.9449 46.6725 23.1027 46.1232ZM34.3504 48.9838C34.3298 48.9567 34.3056 48.9326 34.2786 48.9119C30.4125 46.2711 29.428 41.4754 30.5688 37.1276C31.5575 33.3501 34.1265 28.5798 38.7997 29.6953C43.3165 30.7769 44.6433 35.9529 43.6081 39.9543C42.6067 43.7993 39.3828 49.2499 34.7349 48.6077C34.6841 48.6033 34.6329 48.61 34.5848 48.6273C34.5368 48.6445 34.493 48.6719 34.4565 48.7076C34.42 48.7433 34.3916 48.7864 34.3733 48.8341C34.355 48.8818 34.3472 48.9328 34.3504 48.9838ZM54.2093 50.4711C54.205 50.4976 54.205 50.5248 54.2093 50.5513C53.4498 50.4353 52.6751 50.623 52.0528 51.0737C51.4306 51.5244 51.0107 52.2019 50.884 52.9598C45.3658 51.8696 39.8729 50.6316 34.4054 49.2457C34.4098 49.2107 34.4098 49.1752 34.4054 49.1401C34.4497 49.1854 34.5075 49.2151 34.5702 49.2246C39.4461 49.9049 42.6954 44.8768 44.0137 40.8205C45.3996 36.5402 44.2883 30.8614 39.556 29.2558C39.4123 29.2051 39.2729 29.1671 39.1335 29.1291C41.5799 29.6108 44.0264 30.0967 46.4686 30.6037C48.201 30.9643 49.9319 31.3304 51.6615 31.7023C52.1854 31.8121 54.1417 31.922 54.4544 32.3065C54.5319 32.4082 54.6181 32.503 54.7122 32.5896C54.6446 32.5896 54.5643 32.7417 54.5854 33.2487C54.6403 34.6093 54.5854 36.3121 56.529 36.105C56.5559 36.1408 56.5902 36.1703 56.6296 36.1914C56.669 36.2126 56.7126 36.2249 56.7572 36.2276C56.9009 36.2402 54.4079 49.2499 54.1967 50.4668L54.2093 50.4711Z" stroke="#D18FC0" stroke-width="0.5"/>
</svg>
