<svg width="73" height="74" viewBox="0 0 73 74" fill="none" xmlns="http://www.w3.org/2000/svg">
<path d="M62.6846 1.14478H10.6846C5.43787 1.14478 1.18457 5.39807 1.18457 10.6448V63.6448C1.18457 68.8915 5.43787 73.1448 10.6846 73.1448H62.6846C67.9313 73.1448 72.1846 68.8915 72.1846 63.6448V10.6448C72.1846 5.39807 67.9313 1.14478 62.6846 1.14478Z" fill="#FCF6EB" stroke="#F6BF52" stroke-dasharray="4 4"/>
<path d="M44.6054 15.5287V15.5835C44.5557 15.5265 44.4937 15.4815 44.424 15.4518C34.5959 11.8141 24.471 15.2214 18.2378 23.3365C18.0124 23.6328 18.2982 23.9181 18.6005 23.9236C18.5416 23.9626 18.4932 24.0156 18.4598 24.0778C18.4263 24.1401 18.4088 24.2096 18.4088 24.2802C18.4088 24.3508 18.4263 24.4204 18.4598 24.4826C18.4932 24.5448 18.5416 24.5978 18.6005 24.6369C24.5113 28.6386 30.3232 32.7775 36.0361 37.0536C36.0791 37.0908 36.1307 37.1167 36.1863 37.1289C36.2419 37.1411 36.2996 37.1392 36.3543 37.1233C36.4089 37.1075 36.4587 37.0783 36.4992 37.0383C36.5396 36.9983 36.5694 36.9489 36.5857 36.8945C36.6771 36.9004 36.7681 36.8777 36.846 36.8295C36.9238 36.7813 36.9847 36.71 37.02 36.6256L45.4079 15.7756C45.5948 15.2543 44.7813 15.0403 44.6054 15.5287ZM36.2889 36.2141C30.6273 31.9819 24.8649 27.8924 19.0018 23.9455C18.9485 23.9123 18.8884 23.8916 18.8259 23.8852C18.8743 23.8565 18.9172 23.8193 18.9523 23.7754C24.9932 15.9073 34.7443 12.7633 44.1822 16.2474C44.2239 16.2554 44.2668 16.2554 44.3086 16.2474C41.6335 22.9085 38.9603 29.5641 36.2889 36.2141Z" fill="#F6BF52"/>
<path d="M34.7333 37.2018C28.3627 34.6065 22.003 32.0002 15.7642 29.0977C15.6856 29.0596 15.5973 29.0461 15.5108 29.0589C15.4244 29.0717 15.3438 29.1103 15.2797 29.1696C15.2155 29.2289 15.1708 29.3061 15.1514 29.3912C15.1319 29.4762 15.1386 29.5652 15.1706 29.6464C15.1473 29.6792 15.127 29.7141 15.1101 29.7506C13.8534 33.5553 13.6596 37.63 14.5495 41.5364C14.5585 41.5883 14.5787 41.6376 14.6087 41.6809C14.6388 41.7242 14.678 41.7605 14.7235 41.7871C14.769 41.8138 14.8198 41.8302 14.8724 41.8352C14.9249 41.8402 14.9779 41.8337 15.0277 41.8162C15.0746 41.8605 15.1318 41.8927 15.194 41.9099C15.2563 41.9272 15.3219 41.9289 15.385 41.915L34.7278 37.9919C35.1731 37.9041 35.0686 37.3334 34.7333 37.2018ZM15.308 41.0919C14.5073 37.4267 14.697 33.6149 15.8577 30.0469C21.5852 32.6641 27.3953 35.0893 33.2382 37.4651L15.308 41.0919Z" fill="#F6BF52"/>
<path d="M46.6941 57.5361C37.1134 61.6457 22.1349 58.0848 18.2378 47.6872C21.3526 46.3484 24.4344 44.9382 27.4832 43.4568C28.8519 42.7874 30.2315 42.096 31.5672 41.3937C32.5402 40.8889 35.0137 39.0838 36.0361 39.3855C37.1739 39.7202 37.9929 42.1948 38.592 43.2263L41.2304 47.8737C42.982 50.9756 44.7227 54.0848 46.4523 57.2014C46.7106 57.6678 47.4197 57.2508 47.1614 56.7844C43.7058 50.5806 40.2007 44.3804 36.6462 38.1839C36.5903 38.0944 36.5025 38.0294 36.4006 38.0019C36.2986 37.9744 36.1899 37.9865 36.0965 38.0358C30.1601 41.3133 24.0771 44.2926 17.8475 46.9739C17.8069 46.9879 17.7696 47.01 17.7378 47.0388C17.7059 47.0676 17.6803 47.1025 17.6623 47.1414C17.6443 47.1804 17.6344 47.2226 17.6332 47.2654C17.632 47.3083 17.6394 47.351 17.6551 47.3909C17.6093 47.4041 17.5668 47.4269 17.5305 47.4578C17.4942 47.4887 17.4649 47.527 17.4446 47.5701C17.4243 47.6132 17.4135 47.6601 17.4128 47.7078C17.4121 47.7554 17.4217 47.8026 17.4407 47.8463C21.5193 58.82 37.02 62.5895 47.1229 58.2713C47.5956 58.0409 47.1779 57.355 46.6941 57.5361Z" fill="#F6BF52"/>
<path d="M59.8587 39.0179C59.8487 38.9482 59.8226 38.8817 59.7825 38.8237C59.7424 38.7658 59.6893 38.7179 59.6275 38.6838C59.5657 38.6498 59.4969 38.6306 59.4263 38.6276C59.3558 38.6246 59.2856 38.638 59.2211 38.6668C59.2315 38.6218 59.2321 38.5751 59.223 38.5299C59.2138 38.4847 59.1951 38.4419 59.168 38.4045C59.1409 38.3671 59.1062 38.3359 59.066 38.313C59.0259 38.2901 58.9813 38.276 58.9353 38.2717C55.8016 37.7655 52.6377 37.4667 49.4645 37.3773C46.0895 37.2896 42.5716 37.9644 39.2351 37.5694C39.1802 37.5608 39.124 37.5659 39.0714 37.584C39.0188 37.6021 38.9715 37.6328 38.9335 37.6734C38.8956 37.714 38.8682 37.7632 38.8537 37.8168C38.8392 37.8704 38.838 37.9268 38.8504 37.9809C38.7873 38.0071 38.7312 38.0477 38.6868 38.0996C38.6424 38.1514 38.6109 38.213 38.5948 38.2793C38.5788 38.3456 38.5786 38.4147 38.5944 38.4811C38.6101 38.5475 38.6413 38.6092 38.6855 38.6613L51.927 53.9696C52.2733 54.3756 52.8559 53.7885 52.5097 53.388L39.5594 38.4198C42.4617 38.6997 45.4959 38.151 48.4201 38.1784C51.8691 38.2221 55.3102 38.5192 58.7154 39.0673C58.8294 39.0834 58.9452 39.056 59.0397 38.9905C59.4286 41.7218 59.052 44.5072 57.9518 47.0379C56.8515 49.5686 55.0706 51.7457 52.8065 53.3277C52.3777 53.6294 52.8065 54.3427 53.2242 54.0409C55.6091 52.3899 57.4907 50.1133 58.6615 47.4623C59.8322 44.8113 60.2465 41.8891 59.8587 39.0179Z" fill="#F6BF52"/>
<path d="M59.6224 31.7698C59.636 31.7028 59.636 31.6337 59.6224 31.5668C59.116 28.177 57.7625 24.9691 55.6867 22.2391C54.3291 20.4723 51.6961 17.2351 49.2281 17.3009H49.1787C49.1094 17.3115 49.0442 17.3406 48.9901 17.385C48.9359 17.4294 48.8947 17.4875 48.8708 17.5533C45.0866 23.4096 41.6009 29.4528 38.4271 35.66C38.3007 35.9069 38.4271 36.3239 38.7789 36.28C45.7251 35.3958 52.612 34.0967 59.4025 32.3898C59.4649 32.3727 59.5223 32.3408 59.5697 32.2968C59.6171 32.2528 59.6532 32.198 59.6748 32.1371C59.6964 32.0762 59.7029 32.011 59.6938 31.947C59.6846 31.8831 59.6601 31.8222 59.6224 31.7698ZM49.4755 18.1459C51.9325 18.3544 54.8073 22.2775 55.9836 24.0991C57.4413 26.4047 58.4051 28.9864 58.8144 31.682C52.4528 33.2734 46.0058 34.5026 39.5045 35.3637C42.557 29.4671 45.8806 23.7279 49.4755 18.1459Z" fill="#F6BF52"/>
<path d="M44.6054 15.5287V15.5835C44.5557 15.5265 44.4937 15.4815 44.424 15.4518C34.5959 11.8141 24.471 15.2214 18.2378 23.3365C18.0124 23.6328 18.2982 23.9181 18.6005 23.9236C18.5416 23.9626 18.4932 24.0156 18.4598 24.0778C18.4263 24.1401 18.4088 24.2096 18.4088 24.2802C18.4088 24.3508 18.4263 24.4204 18.4598 24.4826C18.4932 24.5448 18.5416 24.5978 18.6005 24.6369C24.5113 28.6386 30.3232 32.7775 36.0361 37.0536C36.0791 37.0908 36.1307 37.1167 36.1863 37.1289C36.2419 37.1411 36.2996 37.1392 36.3543 37.1233C36.4089 37.1075 36.4587 37.0783 36.4992 37.0383C36.5396 36.9983 36.5694 36.9489 36.5857 36.8945C36.6771 36.9004 36.7681 36.8777 36.846 36.8295C36.9238 36.7813 36.9847 36.71 37.02 36.6256L45.4079 15.7756C45.5948 15.2543 44.7813 15.0403 44.6054 15.5287ZM36.2889 36.2141C30.6273 31.9819 24.8649 27.8924 19.0018 23.9455C18.9485 23.9123 18.8884 23.8916 18.8259 23.8852C18.8743 23.8565 18.9172 23.8193 18.9523 23.7754C24.9932 15.9073 34.7443 12.7633 44.1822 16.2474C44.2239 16.2554 44.2668 16.2554 44.3086 16.2474C41.6335 22.9085 38.9603 29.5641 36.2889 36.2141Z" stroke="#F6BF52" stroke-width="0.5"/>
<path d="M34.7333 37.2018C28.3627 34.6065 22.003 32.0002 15.7642 29.0977C15.6856 29.0596 15.5973 29.0461 15.5108 29.0589C15.4244 29.0717 15.3438 29.1103 15.2797 29.1696C15.2155 29.2289 15.1708 29.3061 15.1514 29.3912C15.1319 29.4762 15.1386 29.5652 15.1706 29.6464C15.1473 29.6792 15.127 29.7141 15.1101 29.7506C13.8534 33.5553 13.6596 37.63 14.5495 41.5364C14.5585 41.5883 14.5787 41.6376 14.6087 41.6809C14.6388 41.7242 14.678 41.7605 14.7235 41.7871C14.769 41.8138 14.8198 41.8302 14.8724 41.8352C14.9249 41.8402 14.9779 41.8337 15.0277 41.8162C15.0746 41.8605 15.1318 41.8927 15.194 41.9099C15.2563 41.9272 15.3219 41.9289 15.385 41.915L34.7278 37.9919C35.1731 37.9041 35.0686 37.3334 34.7333 37.2018ZM15.308 41.0919C14.5073 37.4267 14.697 33.6149 15.8577 30.0469C21.5852 32.6641 27.3953 35.0893 33.2382 37.4651L15.308 41.0919Z" stroke="#F6BF52" stroke-width="0.5"/>
<path d="M46.6941 57.5361C37.1134 61.6457 22.1349 58.0848 18.2378 47.6872C21.3526 46.3484 24.4344 44.9382 27.4832 43.4568C28.8519 42.7874 30.2315 42.096 31.5672 41.3937C32.5402 40.8889 35.0137 39.0838 36.0361 39.3855C37.1739 39.7202 37.9929 42.1948 38.592 43.2263L41.2304 47.8737C42.982 50.9756 44.7227 54.0848 46.4523 57.2014C46.7106 57.6678 47.4197 57.2508 47.1614 56.7844C43.7058 50.5806 40.2007 44.3804 36.6462 38.1839C36.5903 38.0944 36.5025 38.0294 36.4006 38.0019C36.2986 37.9744 36.1899 37.9865 36.0965 38.0358C30.1601 41.3133 24.0771 44.2926 17.8475 46.9739C17.8069 46.9879 17.7696 47.01 17.7378 47.0388C17.7059 47.0676 17.6803 47.1025 17.6623 47.1414C17.6443 47.1804 17.6344 47.2226 17.6332 47.2654C17.632 47.3083 17.6394 47.351 17.6551 47.3909C17.6093 47.4041 17.5668 47.4269 17.5305 47.4578C17.4942 47.4887 17.4649 47.527 17.4446 47.5701C17.4243 47.6132 17.4135 47.6601 17.4128 47.7078C17.4121 47.7554 17.4217 47.8026 17.4407 47.8463C21.5193 58.82 37.02 62.5895 47.1229 58.2713C47.5956 58.0409 47.1779 57.355 46.6941 57.5361Z" stroke="#F6BF52" stroke-width="0.5"/>
<path d="M59.8587 39.0179C59.8487 38.9482 59.8226 38.8817 59.7825 38.8237C59.7424 38.7658 59.6893 38.7179 59.6275 38.6838C59.5657 38.6498 59.4969 38.6306 59.4263 38.6276C59.3558 38.6246 59.2856 38.638 59.2211 38.6668C59.2315 38.6218 59.2321 38.5751 59.223 38.5299C59.2138 38.4847 59.1951 38.4419 59.168 38.4045C59.1409 38.3671 59.1062 38.3359 59.066 38.313C59.0259 38.2901 58.9813 38.276 58.9353 38.2717C55.8016 37.7655 52.6377 37.4667 49.4645 37.3773C46.0895 37.2896 42.5716 37.9644 39.2351 37.5694C39.1802 37.5608 39.124 37.5659 39.0714 37.584C39.0188 37.6021 38.9715 37.6328 38.9335 37.6734C38.8956 37.714 38.8682 37.7632 38.8537 37.8168C38.8392 37.8704 38.838 37.9268 38.8504 37.9809C38.7873 38.0071 38.7312 38.0477 38.6868 38.0996C38.6424 38.1514 38.6109 38.213 38.5948 38.2793C38.5788 38.3456 38.5786 38.4147 38.5944 38.4811C38.6101 38.5475 38.6413 38.6092 38.6855 38.6613L51.927 53.9696C52.2733 54.3756 52.8559 53.7885 52.5097 53.388L39.5594 38.4198C42.4617 38.6997 45.4959 38.151 48.4201 38.1784C51.8691 38.2221 55.3102 38.5192 58.7154 39.0673C58.8294 39.0834 58.9452 39.056 59.0397 38.9905C59.4286 41.7218 59.052 44.5072 57.9518 47.0379C56.8515 49.5686 55.0706 51.7457 52.8065 53.3277C52.3777 53.6294 52.8065 54.3427 53.2242 54.0409C55.6091 52.3899 57.4907 50.1133 58.6615 47.4623C59.8322 44.8113 60.2465 41.8891 59.8587 39.0179Z" stroke="#F6BF52" stroke-width="0.5"/>
<path d="M59.6224 31.7698C59.636 31.7028 59.636 31.6337 59.6224 31.5668C59.116 28.177 57.7625 24.9691 55.6867 22.2391C54.3291 20.4723 51.6961 17.2351 49.2281 17.3009H49.1787C49.1094 17.3115 49.0442 17.3406 48.9901 17.385C48.9359 17.4294 48.8947 17.4875 48.8708 17.5533C45.0866 23.4096 41.6009 29.4528 38.4271 35.66C38.3007 35.9069 38.4271 36.3239 38.7789 36.28C45.7251 35.3958 52.612 34.0967 59.4025 32.3898C59.4649 32.3727 59.5223 32.3408 59.5697 32.2968C59.6171 32.2528 59.6532 32.198 59.6748 32.1371C59.6964 32.0762 59.7029 32.011 59.6938 31.947C59.6846 31.8831 59.6601 31.8222 59.6224 31.7698ZM49.4755 18.1459C51.9325 18.3544 54.8073 22.2775 55.9836 24.0991C57.4413 26.4047 58.4051 28.9864 58.8144 31.682C52.4528 33.2734 46.0058 34.5026 39.5045 35.3637C42.557 29.4671 45.8806 23.7279 49.4755 18.1459Z" stroke="#F6BF52" stroke-width="0.5"/>
</svg>
