<svg
  width="73"
  height="74"
  viewBox="0 0 73 74"
  fill="none"
  xmlns="http://www.w3.org/2000/svg"
>
<path
    d="M62.6846 1.14478H10.6846C5.43787 1.14478 1.18457 5.39807 1.18457 10.6448V63.6448C1.18457 68.8915 5.43787 73.1448 10.6846 73.1448H62.6846C67.9313 73.1448 72.1846 68.8915 72.1846 63.6448V10.6448C72.1846 5.39807 67.9313 1.14478 62.6846 1.14478Z"
    fill="#FFEFE2"
    stroke="#F28C70"
    stroke-dasharray="4 4"
  />
<path
    d="M57.5873 32.3198C55.8935 28.3309 52.9188 25.0201 49.1333 22.9105C47.1686 21.811 45.1497 21.5496 43.1128 20.7295C41.4815 20.0805 41.5627 20.8556 41.2652 18.9269C41.0309 17.3317 41.5086 15.3218 41.6167 13.6905C41.6177 13.5707 41.5872 13.4527 41.5283 13.3483C41.4694 13.244 41.3842 13.1569 41.2811 13.0958C41.178 13.0347 41.0607 13.0017 40.9409 13.0001C40.8211 12.9985 40.703 13.0283 40.5983 13.0867C34.3511 17.121 27.8244 20.7051 21.0677 23.8118C20.9783 23.8641 20.902 23.9362 20.8448 24.0226C20.7877 24.109 20.7512 24.2075 20.7381 24.3102C20.725 24.413 20.7358 24.5174 20.7695 24.6154C20.8032 24.7134 20.859 24.8023 20.9325 24.8753L35.2808 36.7991C35.6323 37.0875 36.3173 37.0425 36.4074 36.5017C36.849 33.9691 37.1825 30.5083 40.5082 32.455C41.8401 33.2433 42.9655 34.3371 43.7915 35.646C44.6174 36.955 45.1202 38.4416 45.2585 39.9831C45.3967 41.5247 45.1663 43.077 44.5864 44.5121C44.0065 45.9471 43.0936 47.2236 41.9232 48.2363C34.019 55.7619 19.2922 46.8213 26.6827 36.8712C26.7636 36.7181 26.7835 36.5399 26.7383 36.3727C26.6931 36.2055 26.5863 36.0616 26.4393 35.97L17.5347 32.0584C17.5888 31.2924 16.4082 31.022 16.2279 31.8061V31.9593C16.1121 32.0513 16.0317 32.1806 16.0005 32.3252C15.9693 32.4698 15.9891 32.6208 16.0567 32.7524C14.2541 41.657 13.8485 52.8237 22.4106 58.4387C30.4049 63.6841 43.4643 60.5657 50.7376 55.4104C58.0109 50.2551 61.0121 40.5574 57.5873 32.3198ZM45.6094 56.6812C38.6606 59.7275 28.5753 61.6652 22.1763 56.528C15.1464 50.9311 15.6691 41.3505 17.2734 33.4013C19.0759 34.1494 20.8785 34.8614 22.5819 35.7356C25.0063 36.9794 24.5827 36.9614 23.8797 39.0884C23.0868 41.5016 23.2217 44.1237 24.2582 46.4427C26.5655 51.5259 32.8113 53.6529 37.9936 52.1027C49.0162 48.75 49.4488 32.5091 37.6962 30.0396C37.5526 29.9989 37.3996 30.0069 37.261 30.0624C37.1224 30.1178 37.0061 30.2175 36.9301 30.346C36.2269 31.8641 35.689 33.4535 35.3259 35.0867L28.4041 29.3186C27.1333 28.2551 25.7003 27.2096 24.4926 26.056C22.7711 24.3796 22.69 24.8032 24.6368 23.6045C29.6929 20.5131 35.1095 18.0617 40.2017 14.9343L39.7962 21.153C39.8007 21.3309 39.8734 21.5002 39.9992 21.626C40.125 21.7518 40.2943 21.8244 40.4721 21.829C48.2501 22.3517 55.3431 27.6062 57.1817 35.3481C59.3447 44.6132 53.9732 53.013 45.6094 56.6812Z"
    fill="#F28C70"
  />
</svg>
