<svg width="73" height="74" viewBox="0 0 73 74" fill="none" xmlns="http://www.w3.org/2000/svg">
<path d="M62.6846 1.14478H10.6846C5.43787 1.14478 1.18457 5.39807 1.18457 10.6448V63.6448C1.18457 68.8915 5.43787 73.1448 10.6846 73.1448H62.6846C67.9313 73.1448 72.1846 68.8915 72.1846 63.6448V10.6448C72.1846 5.39807 67.9313 1.14478 62.6846 1.14478Z" fill="#FFEFE2" stroke="#F28C70" stroke-dasharray="4 4"/>
<path d="M44.4944 31.4226C44.3535 31.4226 44.2267 31.4226 44.0858 31.4226C43.4799 31.4226 43.184 32.0567 43.4235 32.564C43.5222 32.7472 43.3954 32.4231 43.4094 32.3808C43.7899 32.1553 44.1703 31.944 44.5508 31.7326C44.7058 31.8031 44.8185 32.0285 44.6635 31.789C44.5931 31.6903 44.5367 31.5917 44.4663 31.4931C44.3394 31.2958 44.1985 31.0422 43.9871 30.9435C43.4517 30.6758 42.8881 30.9999 42.8458 31.6058C42.8317 31.8031 42.9444 32.0144 43.029 32.1835C43.2544 31.8031 43.4658 31.4226 43.6913 31.0422C43.5785 31.0422 43.4658 31.0422 43.3531 31.0422C42.3667 31.0422 42.3667 32.564 43.3531 32.564C43.6067 32.564 43.8462 32.564 44.0999 32.564C45.0862 32.564 45.0862 31.0422 44.0999 31.0422C43.8462 31.0422 43.6067 31.0422 43.3531 31.0422C42.3667 31.0422 42.3667 32.564 43.3531 32.564C43.4658 32.564 43.5785 32.564 43.6913 32.564C44.2972 32.564 44.5931 31.9299 44.3535 31.4226C44.2549 31.2394 44.3817 31.5635 44.3676 31.6058C43.9872 31.8313 43.6067 32.0426 43.2263 32.2681C43.0713 32.1976 42.9585 31.9722 43.1135 32.2117C43.184 32.3103 43.2403 32.409 43.3108 32.5076C43.4376 32.6908 43.5785 32.9585 43.7899 33.0572C44.3394 33.3249 44.8749 33.0008 44.9312 32.3949C44.9453 32.1976 44.8326 31.9863 44.7481 31.8172C44.5226 32.1976 44.3112 32.5781 44.0858 32.9585C44.2267 32.9585 44.3535 32.9585 44.4944 32.9585C45.4808 32.9444 45.4808 31.4226 44.4944 31.4226Z" fill="#F28C70"/>
<path d="M44.4524 30.5632C44.551 26.2373 47.8342 16.8106 41.5356 15.2888C37.9566 14.4152 35.9134 17.191 35.9557 20.4178C36.012 24.5464 40.4788 28.4355 43.156 31.0986C43.8465 31.7891 44.9174 30.7182 44.2269 30.0277C42.0288 27.8296 39.8729 25.5751 38.2947 22.8837C37.0125 20.7137 36.942 16.9092 40.2533 16.6979C41.7329 16.5992 42.846 17.346 43.3815 18.6988C44.8328 22.3342 43.0151 26.815 42.9306 30.5632C42.9024 31.5354 44.4242 31.5354 44.4524 30.5632Z" fill="#F28C70"/>
<path d="M44.8466 30.9717C44.5788 27.0686 50.032 23.3204 53.3151 22.475C54.3719 22.2073 55.471 22.3764 56.1333 23.2923C57.5846 25.2932 55.8796 27.3081 54.2874 28.4354C52.7374 29.5345 47.5238 32.2822 45.847 30.4363C45.1847 29.7036 44.1138 30.7886 44.7761 31.5072C47.087 34.0576 52.0892 31.4367 54.4846 30.1122C57.4578 28.4636 59.9378 24.2504 56.5842 21.5732C54.1465 19.6287 50.4124 21.7986 48.3552 23.2923C46.0584 24.955 43.1275 27.8718 43.3389 30.9717C43.3952 31.944 44.917 31.944 44.8466 30.9717Z" fill="#F28C70"/>
<path d="M45.8472 33.0291C46.4672 32.4232 49.8772 32.9164 50.8071 32.8741C53.2167 32.7614 56.7112 33.1841 55.1471 36.6363C54.6116 37.82 53.3435 38.4963 52.1458 38.8063C50.4126 39.2572 49.2431 37.9186 48.3694 36.6927C47.2281 35.0863 46.3685 33.3673 44.7763 32.1414C44.0013 31.5496 43.2404 32.86 44.0154 33.4518C46.439 35.3259 47.2704 39.8772 50.7508 40.314C53.6817 40.6804 56.5703 38.6372 56.993 35.6782C57.3734 33.0009 55.3162 31.6482 52.9771 31.3664C51.413 31.1832 49.8349 31.465 48.2708 31.4086C47.1295 31.3805 45.6922 31.0705 44.7763 31.9441C44.0717 32.6345 45.1427 33.7054 45.8472 33.0291Z" fill="#F28C70"/>
<path d="M42.9866 32.3666C40.3234 32.9866 39.788 36.002 39.7034 38.3411C39.6189 40.5111 39.943 44.4706 41.9016 45.9078C44.7056 47.9651 47.1715 46.6124 48.0874 43.4701C48.5524 41.8779 48.3411 40.2152 47.6083 38.7638C47.0588 37.707 46.2133 36.8334 45.692 35.7484C45.1565 34.6493 44.762 33.4798 44.1702 32.4089C43.7052 31.5493 42.3947 32.3102 42.8597 33.1698C44.0434 35.3397 44.9452 37.4252 46.2979 39.5247C48.0733 42.2583 44.7761 48.0778 42.3666 44.0478C41.0702 41.8638 39.9571 34.6211 43.4093 33.8179C44.3393 33.6066 43.9306 32.1411 42.9866 32.3666Z" fill="#F28C70"/>
<path d="M43.2681 30.9151C41.1827 29.2947 39.2099 27.2234 36.6736 26.3076C34.6445 25.5748 31.925 25.6593 30.5159 27.5897C29.3746 29.1679 30.1073 31.0421 31.6291 32.0848C34.4473 34.0152 38.1391 33.2825 41.3518 33.2401C42.3381 33.226 42.3381 31.7042 41.3518 31.7183C39.0268 31.7465 36.7018 32.0284 34.3909 31.6762C32.1364 31.338 30.2623 29.0694 32.9255 27.6744C36.1804 25.9412 40.1963 30.4643 42.4931 32.2257C43.2681 32.8316 44.029 31.507 43.2681 30.9151Z" fill="#F28C70"/>
<path d="M43.0851 31.4512C39.6611 30.4085 29.8116 33.1562 31.0657 38.1866C31.6434 40.4693 34.0529 40.9343 36.0961 40.6102C39.5061 40.0607 41.2674 35.7207 42.9301 33.1844C43.4656 32.3671 42.1551 31.6062 41.6197 32.4235C40.3092 34.4385 39.1397 36.5803 37.477 38.3416C36.3356 39.5534 32.7002 39.793 32.517 37.623C32.2211 34.1285 40.1965 32.1698 42.6765 32.9167C43.6206 33.1985 44.0151 31.733 43.0851 31.4512Z" fill="#F28C70"/>
<path d="M39.0835 38.2565C38.6326 43.5687 34.4194 48.0777 30.8826 51.7272C27.064 55.6586 21.8645 60.1817 16.5523 61.8444C15.6223 62.1403 16.0169 63.6057 16.961 63.3098C23.0341 61.4076 28.6422 56.2222 32.9962 51.7413C36.533 48.1059 40.1684 43.4841 40.6194 38.2705C40.6757 37.2842 39.168 37.2983 39.0835 38.2565Z" fill="#F28C70"/>
</svg>
