<svg width="73" height="74" viewBox="0 0 73 74" fill="none" xmlns="http://www.w3.org/2000/svg">
<path d="M62.6846 1.14478H10.6846C5.43787 1.14478 1.18457 5.39807 1.18457 10.6448V63.6448C1.18457 68.8915 5.43787 73.1448 10.6846 73.1448H62.6846C67.9313 73.1448 72.1846 68.8915 72.1846 63.6448V10.6448C72.1846 5.39807 67.9313 1.14478 62.6846 1.14478Z" fill="#E5F9F8" stroke="#65BAB6" stroke-dasharray="4 4"/>
<path d="M58.0978 25.4207C54.3183 15.5497 42.6117 12.8057 33.1518 13.0105C24.5034 13.2123 16.5867 17.1764 15.2021 26.4213C14.5811 30.0256 15.4043 33.7295 17.4934 36.7315C18.5064 38.1057 19.9952 39.053 21.6691 39.3882C25.2348 40.2963 34.2422 40.8827 30.4695 47.4998C30.4033 47.6323 30.3859 47.7838 30.4202 47.9279C29.9277 48.3479 29.599 48.928 29.4918 49.5663C29.3846 50.2046 29.5058 50.8603 29.834 51.4181C29.953 51.6374 30.0965 51.8425 30.2616 52.0295C28.9919 54.3409 29.6292 55.8517 31.0925 56.8151C31.0915 56.8736 31.1011 56.9319 31.1209 56.987C31.5956 58.2539 32.4236 59.3581 33.5067 60.1688C34.5898 60.9796 35.8825 61.4629 37.2318 61.5615C38.5812 61.6601 39.9305 61.3698 41.1199 60.7251C42.3093 60.0804 43.289 59.1082 43.9428 57.9238C43.9849 57.85 44.0116 57.7684 44.0213 57.6839C44.031 57.5995 44.0236 57.5139 43.9994 57.4324C44.7898 57.1342 45.4582 56.5809 45.8989 55.86C46.2064 55.317 46.3063 54.6807 46.1802 54.0695C46.054 53.4583 45.7104 52.9136 45.213 52.5367C45.9563 51.7307 46.0848 50.6131 45.1295 49.0738C45.1426 48.9897 45.136 48.9037 45.1102 48.8226C45.1688 48.7631 45.2132 48.6913 45.2403 48.6125C45.2675 48.5336 45.2766 48.4497 45.2671 48.3668C44.7918 43.0037 51.0593 42.4156 54.1763 40.1722C55.4483 39.2546 56.5136 38.0803 57.3034 36.7252C58.2617 35.0163 58.83 33.1165 58.9673 31.162C59.1047 29.2075 58.8077 27.2469 58.0978 25.4207ZM32.766 57.626C34.933 58.2499 37.1948 58.4774 39.4427 58.2976C40.471 58.2389 41.4942 58.1124 42.5059 57.9192C41.9533 58.7134 41.2112 59.3573 40.347 59.7924C39.4828 60.2275 38.5236 60.4402 37.5565 60.4111C36.5893 60.3819 35.6447 60.112 34.8082 59.6257C33.9717 59.1394 33.2698 58.452 32.766 57.626ZM43.2958 56.4279C42.6878 56.6297 42.0634 56.7782 41.4297 56.8718C40.5312 57.0304 39.6236 57.1325 38.7122 57.1776C37.6753 57.2403 36.6352 57.2306 35.5996 57.1488C34.3826 57.0983 33.1842 56.8327 32.0598 56.3642C31.9969 56.2925 31.9124 56.2433 31.819 56.224C30.8125 55.6184 30.2622 54.6074 31.1606 52.8717C32.5882 53.6491 34.1582 54.1302 35.7763 54.286C37.481 54.5464 41.6987 54.5336 44.0937 53.3314L43.2958 56.4279ZM40.1591 53.2563C39.072 53.3427 37.9794 53.3326 36.894 53.2261C35.8018 53.1357 34.7217 52.9334 33.6708 52.6224L32.951 52.387C31.2767 52.0017 30.773 50.7953 31.4274 48.8066C32.6486 49.4906 33.9557 50.0083 35.314 50.3459C35.4052 50.4353 35.5197 50.4971 35.6445 50.5242C35.7692 50.5513 35.8991 50.5427 36.0191 50.4993C38.7542 51.0258 41.5825 50.7664 44.1762 49.7511C44.1762 49.7511 44.1762 49.7511 44.1708 49.7987C45.9898 52.626 41.4107 53.1272 40.1619 53.2325L40.1591 53.2563ZM39.5091 49.5516C38.4419 49.6141 37.3709 49.5502 36.3187 49.3613C36.1623 43.3248 34.5189 37.4201 31.5341 32.1709C34.1807 29.6886 38.6626 31.0795 42.0581 32.6988C39.8461 38.0159 38.9718 43.7943 39.5119 49.5278L39.5091 49.5516ZM55.6695 37.0352C53.5297 39.9291 50.2837 40.4311 47.4792 42.2608C45.203 43.7577 43.8657 45.7481 44.0868 48.5041C42.9885 48.9449 41.8396 49.2471 40.6666 49.4036C40.1387 43.8948 40.9679 38.3406 43.0816 33.2261L43.4078 33.3921C45.2314 34.3648 46.7191 35.6041 48.7539 34.8102C49.4775 34.524 48.9927 33.4322 48.278 33.7114C46.9658 34.2271 45.1076 33.3467 43.4629 32.3545C44.0585 31.0632 44.7285 29.8076 45.4696 28.5939C45.8659 27.9408 44.9137 27.2129 44.5164 27.8739C43.757 29.1072 43.0736 30.3857 42.4699 31.7022C41.8174 31.2748 41.1331 30.8981 40.4231 30.5753C38.7667 29.8554 36.9713 29.5117 35.1662 29.569C33.6282 29.6534 32.1566 30.2237 30.9634 31.1977C30.0515 29.7021 29.0382 28.2708 27.9306 26.9137C27.4369 26.3188 26.5001 27.0624 26.9938 27.6572C28.1345 29.0517 29.1698 30.5291 30.0913 32.0772C29.5594 32.7269 29.1456 33.4648 28.8687 34.2575C28.6166 34.9834 29.7294 35.4326 29.9815 34.7067C30.1627 34.1708 30.4103 33.6596 30.7187 33.1853C33.4031 38.0534 34.8996 43.4868 35.0864 49.0428C33.9343 48.7221 32.8301 48.2494 31.8029 47.6372L31.7236 47.628C32.1728 46.7013 32.3522 45.6669 32.2414 44.643C32.1305 43.6191 31.7338 42.647 31.0967 41.8379C28.5056 38.3918 24.4785 39.4705 21.0083 38.0112C15.822 35.8325 15.4594 28.2337 17.1237 23.6789C19.2257 18.0421 24.0185 15.1241 29.8574 14.4224C40.2341 13.1586 56.3939 16.2864 57.7488 29.0828C58.037 31.8898 57.2994 34.7061 55.6723 37.0114L55.6695 37.0352Z" fill="#65BAB6"/>
</svg>
