<svg
  width="303"
  height="117"
  viewBox="0 0 303 117"
  fill="none"
  xmlns="http://www.w3.org/2000/svg"
>
<g clip-path="url(#clip0_21_231)">
<path
      d="M101.017 53.3485L101.541 62.7674L98.3448 62.576L95.4355 37.3565L100.444 36.9765L100.634 45.1625L108.362 37.4493L112.607 41.2203L101.541 49.6906L112.988 57.1196L111.558 61.5694L101.017 53.3485Z"
      fill="#2F2B27"
    />
<path
      d="M122.724 59.974C121.373 60.0185 120.043 59.6377 118.923 58.8862C117.903 58.1738 117.056 57.2441 116.444 56.1652C115.826 55.0865 115.376 53.9219 115.108 52.7104C114.853 51.616 114.717 50.4976 114.704 49.3745C114.72 48.2578 114.864 47.1466 115.131 46.0617C115.42 44.8259 115.92 43.6485 116.61 42.5808C117.329 41.475 118.291 40.5448 119.423 39.8598C120.593 39.1346 122.088 38.772 123.908 38.772C125.624 38.772 127.022 39.0563 128.104 39.6249C129.111 40.1276 129.985 40.8567 130.657 41.7541C131.271 42.5944 131.702 43.5528 131.923 44.5678C132.135 45.5207 132.247 46.4928 132.256 47.4686C132.229 48.7028 132.077 49.9311 131.803 51.1352C131.498 52.5767 130.975 53.9644 130.253 55.2515C129.528 56.5564 128.531 57.6935 127.329 58.5874C126.101 59.5118 124.566 59.974 122.724 59.974ZM123.344 42.1341C122.6 42.1064 121.872 42.351 121.297 42.8215C120.739 43.3014 120.291 43.895 119.985 44.562C119.636 45.3222 119.395 46.1266 119.268 46.9523C119.127 47.8155 119.056 48.6885 119.055 49.563C119.056 50.0541 119.128 50.5425 119.268 51.0134C119.405 51.4889 119.624 51.9374 119.914 52.3391C120.203 52.7362 120.568 53.0732 120.987 53.3311C121.454 53.6107 121.992 53.7507 122.537 53.7344C123.282 53.7704 124.018 53.567 124.636 53.1542C125.183 52.7511 125.624 52.2239 125.923 51.6168C126.25 50.9599 126.475 50.2577 126.59 49.534C126.716 48.799 126.781 48.0548 126.783 47.3091C126.778 46.755 126.738 46.2017 126.663 45.6527C126.588 45.0698 126.419 44.5027 126.163 43.9732C125.917 43.4663 125.558 43.0218 125.113 42.6736C124.601 42.2972 123.975 42.1067 123.338 42.1341H123.344Z"
      fill="#2F2B27"
    />
<path
      d="M153.626 59.2662C153.688 58.2886 153.761 57.2356 153.84 56.142C153.919 55.0484 154 53.9345 154.079 52.8293C154.158 51.7241 154.223 50.6537 154.269 49.6123C154.316 48.5709 154.34 47.5818 154.34 46.6767C154.34 45.2573 154.189 44.24 153.889 43.6251C153.769 43.3419 153.565 43.1019 153.304 42.937C153.042 42.7722 152.737 42.6904 152.427 42.7026C151.821 42.7349 151.226 42.8795 150.673 43.129C150.643 43.5737 150.587 44.0163 150.506 44.4547C150.395 45.147 150.261 46.0066 150.103 47.0335C149.945 48.0604 149.75 49.1956 149.518 50.439C149.296 51.6864 149.065 52.9434 148.825 54.2101C148.585 55.4768 148.348 56.7154 148.112 57.926C147.872 59.125 147.657 60.1973 147.466 61.143L143.665 59.8173C143.824 58.4946 144 57.0596 144.191 55.5125C144.382 53.9654 144.556 52.5063 144.714 51.1352C144.876 49.7641 145.011 48.5651 145.121 47.5382C145.23 46.5114 145.285 45.8568 145.287 45.5744C145.287 43.6522 144.667 42.6852 143.428 42.6736C142.619 42.7231 141.826 42.9197 141.089 43.2538L139.799 57.4009L136.557 58.5845V38.0468L141.422 36.1062L141.182 39.1376C141.972 38.7524 142.794 38.4351 143.638 38.189C144.312 37.9849 145.01 37.8736 145.714 37.8583C146.415 37.8536 147.109 37.9826 147.761 38.2383C148.368 38.4706 148.92 38.8241 149.384 39.2768C150.272 38.7804 151.206 38.3686 152.173 38.0468C152.873 37.8139 153.604 37.6868 154.342 37.6697C156.029 37.6697 157.301 38.1271 158.161 39.0418C159.021 39.9565 159.45 41.4069 159.448 43.393V44.2429C159.444 44.5614 159.412 44.8788 159.351 45.1915C159.224 46.4524 159.082 47.8061 158.924 49.2526C158.766 50.6992 158.606 52.1341 158.445 53.5574C158.287 54.9749 158.12 56.316 157.945 57.5808C157.769 58.8455 157.617 59.9237 157.489 60.8152L153.626 59.2662Z"
      fill="#2F2B27"
    />
<path
      d="M185.002 52.78C185.02 53.6173 184.705 54.4279 184.125 55.0368C183.492 55.6876 182.727 56.1969 181.88 56.5307C180.893 56.934 179.862 57.2165 178.807 57.3719C177.685 57.5461 176.553 57.643 175.418 57.662L174.351 43.219C174.956 43.1145 175.564 43.0362 176.169 42.984C176.774 42.9318 177.362 42.9057 177.924 42.9057C178.649 42.9035 179.373 42.9559 180.09 43.0623C180.729 43.1524 181.352 43.3301 181.941 43.5903C182.45 43.8135 182.896 44.1559 183.242 44.5881C183.575 45.0268 183.747 45.565 183.73 46.114C183.711 46.8035 183.438 47.4621 182.961 47.9647C182.45 48.5545 181.852 49.064 181.187 49.476C181.649 49.5798 182.105 49.7096 182.552 49.8647C182.986 50.0113 183.398 50.2152 183.777 50.471C184.139 50.7164 184.439 51.0409 184.654 51.4195C184.889 51.8347 185.009 52.304 185.002 52.78ZM180.546 46.1488C180.552 45.9985 180.521 45.849 180.455 45.7134C180.389 45.5779 180.291 45.4604 180.169 45.3713C179.887 45.1704 179.566 45.0274 179.228 44.9507C178.832 44.8544 178.427 44.7971 178.02 44.7796C177.63 44.7594 177.24 44.7594 176.851 44.7796L177.228 48.0169C177.602 47.956 177.991 47.8718 178.397 47.7674C178.771 47.6742 179.134 47.5439 179.482 47.3787C179.774 47.2463 180.04 47.0625 180.266 46.8362C180.449 46.6536 180.553 46.4067 180.555 46.1488H180.546ZM181.394 52.2201C181.389 52.0894 181.351 51.9621 181.282 51.8504C181.213 51.7387 181.117 51.6463 181.002 51.5819C180.698 51.3867 180.364 51.2399 180.014 51.1468C179.597 51.0287 179.172 50.9405 178.742 50.8829C178.292 50.819 177.868 50.7668 177.47 50.7262L177.912 54.2072C178.282 54.1808 178.648 54.1235 179.008 54.036C179.396 53.9468 179.773 53.8215 180.137 53.6618C180.469 53.5246 180.772 53.328 181.032 53.0817C181.15 52.9716 181.245 52.8381 181.309 52.6897C181.373 52.5414 181.405 52.3814 181.403 52.2201H181.394Z"
      fill="#2F2B27"
    />
<path
      d="M213.141 59.3648C212.525 59.3069 211.922 59.1553 211.352 58.9152C210.81 58.6893 210.328 58.3406 209.946 57.897C208.997 58.4364 208.009 58.9038 206.99 59.2952C206.289 59.5694 205.546 59.7215 204.794 59.7448C203.234 59.7139 202.01 59.24 201.121 58.3234C200.232 57.4067 199.787 55.909 199.785 53.8301C199.785 52.3777 199.857 50.8945 200.002 49.3803C200.146 47.866 200.341 46.3518 200.586 44.8376C200.824 43.3234 201.086 41.8324 201.373 40.3646C201.659 38.8968 201.945 37.4851 202.229 36.1294L205.569 37.7858C205.313 39.8995 205.131 42.0055 205.022 44.1037C204.913 46.202 204.809 48.1822 204.712 50.0445V49.9952C204.647 51.6061 204.759 52.8129 205.045 53.6154C205.332 54.418 205.856 54.8202 206.618 54.8222C207.376 54.8076 208.116 54.5955 208.764 54.2072C208.779 52.7904 208.882 51.3759 209.074 49.972C209.283 48.3785 209.546 46.7541 209.864 45.0987C210.181 43.4433 210.523 41.8189 210.887 40.2253C211.254 38.6318 211.611 37.2201 211.96 35.9902L215.586 37.1708C215.428 38.041 215.267 39.0244 215.109 40.0716C214.951 41.1188 214.799 42.2008 214.656 43.2886C214.513 44.3764 214.384 45.4265 214.273 46.4359C214.162 47.4454 214.059 48.3447 213.963 49.1337C213.902 49.6703 213.852 50.2621 213.823 50.9061C213.787 51.5081 213.826 52.1121 213.94 52.7046C214.026 53.2075 214.226 53.6846 214.524 54.0998C214.675 54.294 214.871 54.4485 215.096 54.5497C215.321 54.6508 215.567 54.6956 215.814 54.68C216.193 54.6756 216.57 54.62 216.934 54.5147C217.323 54.4044 217.777 54.2546 218.293 54.065C218.515 51.5085 218.738 48.9374 218.96 46.3518C219.182 43.7662 219.389 41.1952 219.58 38.6386L222.682 37.3129L222.729 59.272L218.051 61.1633L218.29 58.277C217.334 58.7315 216.324 59.0657 215.285 59.272C214.577 59.3935 213.857 59.4247 213.141 59.3648Z"
      fill="#2F2B27"
    />
<path
      d="M244.383 38.7285L245.669 59.8318L241.33 58.129V42.3719L238.278 42.0412C238.116 42.9231 237.921 43.9712 237.693 45.1857C237.465 46.4002 237.183 47.6456 236.848 48.9219C236.492 50.2151 236.062 51.4868 235.558 52.7307C235.087 53.9261 234.462 55.0561 233.699 56.0927C232.987 57.051 232.093 57.862 231.067 58.48C230 59.1079 228.776 59.4274 227.535 59.4025C227.16 59.3973 226.786 59.3663 226.416 59.3097C225.841 59.2126 225.275 59.072 224.723 58.889L225.056 54.4827C225.819 54.6713 226.471 54.8076 227.012 54.886C227.454 54.9556 227.901 54.9944 228.348 55.002C228.81 54.9987 229.265 54.8902 229.678 54.6851C230.091 54.4799 230.452 54.1834 230.731 53.8185C231.475 52.905 232.067 51.8798 232.485 50.7813C233.008 49.4488 233.422 48.0773 233.725 46.6796C234.058 45.177 234.321 43.714 234.512 42.2907C234.703 40.8674 234.846 39.5707 234.942 38.4007C235.037 37.2404 235.117 36.3702 235.181 35.79L244.383 38.7285Z"
      fill="#2F2B27"
    />
<path
      d="M256.546 50.7929C255.683 50.5421 254.838 50.2339 254.017 49.8705C253.233 49.5342 252.489 49.114 251.798 48.6173C251.176 48.1756 250.636 47.631 250.201 47.0074C249.793 46.4244 249.576 45.7303 249.581 45.0203C249.565 43.9722 249.865 42.9431 250.441 42.0644C251.035 41.173 251.795 40.4022 252.681 39.7931C253.669 39.1123 254.744 38.5632 255.876 38.16C257.082 37.7187 258.318 37.3629 259.575 37.0954C260.809 36.8311 262.059 36.6489 263.318 36.55C264.444 36.4576 265.575 36.4421 266.703 36.5036L263.984 59.1298L260.789 59.4199L261.218 51.7067C260.8 51.6861 260.384 51.6229 259.979 51.5181L252.73 60.0842L247.76 58.8049L256.546 50.7929ZM261.648 41.3305C261.04 41.4088 260.441 41.5438 259.859 41.7337C259.221 41.9307 258.612 42.2086 258.046 42.5605C257.516 42.8872 257.042 43.2944 256.64 43.7672C256.271 44.1788 256.064 44.7078 256.055 45.2582C256.048 45.7097 256.209 46.1478 256.508 46.4881C256.847 46.8636 257.251 47.176 257.701 47.4106C258.242 47.6991 258.809 47.937 259.394 48.1213C260.031 48.3273 260.666 48.5071 261.303 48.6637L261.648 41.3305Z"
      fill="#2F2B27"
    />
<path
      d="M278.294 60.4468C278.39 58.6812 278.477 56.7724 278.557 54.7206C278.637 52.6688 278.693 50.7765 278.724 49.0438C278.788 46.5839 278.496 45.03 277.847 44.3822C277.198 43.7343 275.998 43.8687 274.247 44.7854L274.437 58.9326L271.671 60.4468L269.476 40.0513L274.008 37.5914L274.054 40.4777C274.912 40.0129 275.806 39.6172 276.727 39.2942C277.402 39.059 278.111 38.9317 278.826 38.9171C280.639 38.9171 281.959 39.5243 282.785 40.7388C283.611 41.9532 283.897 43.8378 283.642 46.3924C283.548 47.6253 283.434 48.9654 283.308 50.4158C283.183 51.8662 283.045 53.3166 282.902 54.7206C282.759 56.1246 282.624 57.4909 282.498 58.7817C282.373 60.0726 282.244 61.1401 282.115 62.0248L278.294 60.4468Z"
      fill="#2F2B27"
    />
<path
      d="M292.174 49.1859C292.11 49.534 292.048 49.9024 291.984 50.2969C291.922 50.665 291.89 51.0375 291.888 51.4108C291.85 52.5482 292.071 53.6794 292.534 54.7206C292.964 55.5908 293.621 56.0463 294.513 56.0463C295.346 56.0219 296.149 55.732 296.803 55.2196C297.565 54.6684 298.534 53.7015 299.712 52.3188L302.574 57.6185C301.568 58.511 300.392 59.1946 299.115 59.6287C297.946 60.0568 296.713 60.2882 295.466 60.3133C294.167 60.3547 292.881 60.0438 291.747 59.4141C290.744 58.8319 289.887 58.0315 289.241 57.0731C288.57 56.0647 288.093 54.9415 287.835 53.7604C287.548 52.5109 287.404 51.2333 287.405 49.9517C287.412 48.6349 287.58 47.3239 287.905 46.0472C288.217 44.7598 288.751 43.5352 289.481 42.427C290.179 41.3722 291.088 40.4708 292.151 39.7786C293.298 39.0604 294.634 38.6979 295.99 38.7372C297.049 38.7137 298.101 38.9237 299.069 39.3522C299.921 39.7457 300.672 40.3282 301.262 41.055C301.866 41.8119 302.312 42.6806 302.574 43.6106C302.866 44.6423 303.01 45.7096 303.001 46.7811C302.998 47.4016 302.942 48.0206 302.835 48.6318C302.723 49.2797 302.541 50.061 302.288 50.9757L292.174 49.1859ZM296.56 42.6069C296.127 42.5828 295.696 42.6629 295.301 42.8402C294.906 43.0174 294.561 43.2867 294.294 43.6251C293.735 44.3668 293.294 45.1884 292.984 46.0617L297.42 46.1574C297.659 45.5375 297.788 44.8808 297.8 44.2168C297.818 43.8078 297.71 43.403 297.49 43.0565C297.387 42.9091 297.248 42.7904 297.085 42.7117C296.923 42.633 296.743 42.5969 296.563 42.6069H296.56Z"
      fill="#2F2B27"
    />
<path
      d="M110.809 70.3559V67.6552H112.396V70.3211C112.396 71.1739 112.546 71.7715 112.841 72.076C113.136 72.3806 113.648 72.5518 114.373 72.5518C114.643 72.5729 114.914 72.5379 115.169 72.449C115.424 72.3601 115.658 72.2192 115.855 72.0354C116.183 71.6912 116.349 71.141 116.355 70.3849L116.373 67.6552H117.943V77.2714H116.355V73.0884C116.129 73.3956 115.827 73.6402 115.478 73.7991C115.059 73.9997 114.598 74.0991 114.133 74.0892C112.934 74.0892 112.079 73.7788 111.566 73.158C111.053 72.5373 110.801 71.6032 110.809 70.3559Z"
      fill="#F6BF52"
    />
<path
      d="M120.832 75.0291C120.78 74.644 120.815 74.2525 120.934 73.8824C121.053 73.5123 121.252 73.1729 121.519 72.8883C122.142 72.2723 122.962 71.8917 123.837 71.8121C124.619 71.7191 125.404 71.6707 126.191 71.667V70.7214C126.226 70.2376 126.079 69.758 125.779 69.3754C125.504 69.0853 125.024 68.92 124.334 68.92C123.921 68.8899 123.511 69.0152 123.185 69.271C122.925 69.5059 122.796 69.9294 122.802 70.5444H121.261C121.229 69.4943 121.478 68.7198 122.01 68.2238C122.542 67.7277 123.337 67.4783 124.396 67.4783C125.507 67.4783 126.352 67.7364 126.928 68.247C127.504 68.7575 127.805 69.5814 127.805 70.7185V77.2569H126.387L126.25 75.9457C126.034 76.3614 125.698 76.7038 125.285 76.9291C124.823 77.2009 124.295 77.3414 123.758 77.3352C123.372 77.3404 122.987 77.2965 122.612 77.2046C122.325 77.1347 122.051 77.017 121.802 76.8565C121.597 76.7148 121.421 76.5344 121.285 76.3257C121.158 76.1336 121.06 75.9246 120.992 75.7049C120.92 75.4846 120.866 75.2585 120.832 75.0291ZM122.437 74.826C122.441 74.9823 122.486 75.1348 122.565 75.2697C122.645 75.4045 122.758 75.5173 122.893 75.5976C123.201 75.7656 123.55 75.8478 123.902 75.8355C124.277 75.8453 124.65 75.771 124.992 75.6179C125.286 75.4837 125.533 75.2681 125.706 74.9971C125.881 74.7208 126.009 74.418 126.086 74.1008C126.172 73.7391 126.221 73.3699 126.232 72.9985C125.476 72.9777 124.72 73.0321 123.975 73.1609C122.84 73.3969 122.326 73.9558 122.431 74.8376L122.437 74.826Z"
      fill="#F6BF52"
    />
<path
      d="M130.91 73.7469V70.9999C130.91 69.768 131.225 68.8726 131.855 68.3137C132.484 67.7548 133.389 67.4764 134.568 67.4783C135.06 67.4699 135.552 67.5245 136.03 67.6408C136.428 67.7393 136.801 67.918 137.126 68.1658C137.456 68.4297 137.708 68.7776 137.854 69.1724C138.04 69.6714 138.139 70.1981 138.147 70.7301L136.632 70.7446C136.629 70.432 136.572 70.1221 136.466 69.828C136.385 69.6046 136.237 69.4112 136.042 69.2739C135.853 69.1481 135.641 69.0604 135.419 69.0157C135.137 68.9673 134.851 68.9449 134.565 68.949C134.266 68.9426 133.967 68.9678 133.673 69.0244C133.441 69.0724 133.224 69.1715 133.036 69.3145C132.836 69.479 132.693 69.701 132.627 69.9498C132.53 70.2942 132.485 70.6511 132.495 71.0086V73.7498C132.486 74.113 132.531 74.4754 132.627 74.826C132.693 75.0833 132.833 75.316 133.03 75.4961C133.213 75.6546 133.43 75.7688 133.664 75.8297C133.959 75.8997 134.262 75.9318 134.565 75.9254C134.865 75.9313 135.165 75.907 135.46 75.8529C135.686 75.8068 135.9 75.7139 136.088 75.5802C136.28 75.4324 136.422 75.23 136.495 75.0001C136.59 74.675 136.636 74.3378 136.632 73.9993H138.147C138.131 75.264 137.849 76.1536 137.299 76.668C136.749 77.1824 135.838 77.4396 134.565 77.4396C133.288 77.4396 132.359 77.1496 131.779 76.5694C131.198 75.9892 130.908 75.0484 130.91 73.7469Z"
      fill="#F6BF52"
    />
<path
      d="M140.226 69.1259V67.6552H146.781V69.1259H144.296V77.2714H142.708V69.1259H140.226Z"
      fill="#F6BF52"
    />
<path
      d="M149.146 77.2714V67.6552H150.734V71.4756H154.766V67.6552H156.348V77.2714H154.76V72.9463H150.734V77.2714H149.146Z"
      fill="#F6BF52"
    />
<path
      d="M159.503 77.2714V67.6552H161.091V70.6372H162.798C163.95 70.6372 164.816 70.8925 165.4 71.4089C165.985 71.9252 166.277 72.7722 166.277 73.9587C166.277 75.1451 166.02 76.0385 165.506 76.5317C164.991 77.0248 164.09 77.2714 162.804 77.2714H159.503ZM161.091 75.821H162.798C163.526 75.821 164.026 75.6788 164.292 75.3975C164.558 75.1161 164.693 74.6287 164.693 73.9471C164.693 73.2654 164.561 72.7229 164.304 72.4386C164.047 72.1544 163.544 72.0151 162.798 72.0151H161.091V75.821ZM167.991 77.2714V67.6552H169.579V77.2714H167.991Z"
      fill="#F6BF52"
    />
<path
      d="M172.722 77.2714V67.6552H174.309V74.6027L178.324 67.6552H180.058V77.2714H178.47V70.2718L174.42 77.2714H172.722ZM173.812 64.4324H175.14C175.126 64.5811 175.149 64.731 175.206 64.8689C175.264 65.0069 175.354 65.1289 175.47 65.2244C175.754 65.3866 176.079 65.4623 176.406 65.4419C176.726 65.4623 177.046 65.3876 177.324 65.2273C177.439 65.1311 177.529 65.0084 177.586 64.8698C177.642 64.7313 177.664 64.5811 177.648 64.4324H179.064C179.036 65.9795 178.15 66.7531 176.406 66.7531C174.696 66.7512 173.834 65.9776 173.818 64.4324H173.812Z"
      fill="#F6BF52"
    />
<path
      d="M187.835 75.7833H188.51C189.069 75.2845 189.468 74.6339 189.657 73.9123C189.841 73.0733 189.924 72.2152 189.902 71.3567L190.007 67.6378H195.677V75.7833H196.823V79.0554H195.308V77.254H189.347V79.0554H187.832L187.835 75.7833ZM190.373 75.7833H194.124V69.1114H191.542L191.493 71.3624C191.498 72.3562 191.382 73.347 191.145 74.3126C190.993 74.8505 190.73 75.3513 190.373 75.7833Z"
      fill="#F6BF52"
    />
<path
      d="M199.177 73.8281V70.9999C199.177 69.7815 199.486 68.9007 200.104 68.3573C200.722 67.8138 201.611 67.5421 202.773 67.5421C205.177 67.5421 206.378 68.6947 206.378 70.9999V73.0681H200.732V73.7904C200.732 74.6181 200.887 75.1761 201.197 75.4642C201.507 75.7523 202.032 75.8964 202.773 75.8964C203.313 75.9371 203.852 75.8147 204.32 75.5454C204.487 75.4192 204.619 75.2535 204.706 75.0636C204.792 74.8737 204.829 74.6654 204.814 74.4576H206.346C206.346 75.4246 206.062 76.1498 205.492 76.6332C204.908 77.1235 204.016 77.3671 202.776 77.3671C201.474 77.3671 200.549 77.1002 200.001 76.5665C199.454 76.0328 199.179 75.12 199.177 73.8281ZM200.732 71.6787H204.861V70.9883C204.87 70.6388 204.822 70.2902 204.72 69.9556C204.641 69.7051 204.489 69.4839 204.282 69.3203C204.088 69.1764 203.868 69.0728 203.633 69.0157C203.35 68.9554 203.062 68.9271 202.773 68.9316C202.486 68.9269 202.2 68.9551 201.919 69.0157C201.691 69.0685 201.476 69.1672 201.288 69.3058C201.086 69.4679 200.939 69.6876 200.867 69.9353C200.77 70.2738 200.724 70.6248 200.732 70.9767V71.6787Z"
      fill="#F6BF52"
    />
<path
      d="M208.589 69.1259V67.6552H215.144V69.1259H212.662V77.2714H211.074V69.1259H208.589Z"
      fill="#F6BF52"
    />
<path
      d="M217.357 73.7469V70.9999C217.357 69.768 217.672 68.8726 218.302 68.3137C218.931 67.7548 219.836 67.4764 221.015 67.4783C221.507 67.4701 221.999 67.5247 222.477 67.6408C222.875 67.7393 223.248 67.918 223.574 68.1658C223.904 68.4297 224.155 68.7776 224.302 69.1724C224.488 69.6714 224.586 70.1981 224.594 70.7301L223.079 70.7446C223.073 70.4322 223.017 70.1229 222.913 69.828C222.832 69.6046 222.684 69.4112 222.489 69.2739C222.3 69.1481 222.089 69.0604 221.866 69.0157C221.584 68.9672 221.298 68.9449 221.012 68.949C220.713 68.9425 220.414 68.9678 220.121 69.0244C219.889 69.0724 219.671 69.1715 219.483 69.3145C219.284 69.479 219.141 69.701 219.074 69.9498C218.977 70.2942 218.933 70.6511 218.942 71.0086V73.7498C218.934 74.113 218.978 74.4754 219.074 74.826C219.14 75.0833 219.28 75.316 219.477 75.4961C219.66 75.6546 219.877 75.7688 220.112 75.8297C220.407 75.8997 220.709 75.9318 221.012 75.9254C221.312 75.9313 221.612 75.907 221.907 75.8529C222.133 75.8074 222.346 75.7144 222.533 75.5802C222.726 75.4327 222.868 75.2303 222.942 75.0001C223.037 74.675 223.083 74.3378 223.079 73.9993H224.594C224.576 75.264 224.294 76.1536 223.746 76.668C223.198 77.1824 222.287 77.4396 221.012 77.4396C219.736 77.4396 218.807 77.1496 218.226 76.5694C217.645 75.9892 217.355 75.0484 217.357 73.7469Z"
      fill="#F6BF52"
    />
<path
      d="M227.518 77.2714V67.6553H229.105V71.5481H229.643C229.929 71.5554 230.209 71.4731 230.444 71.3132C230.67 71.1552 230.856 70.9477 230.988 70.7069C231.131 70.4441 231.26 70.1739 231.374 69.8976C231.497 69.6075 231.631 69.3174 231.781 69.0273C231.925 68.7498 232.102 68.4906 232.31 68.2557C232.537 68.0117 232.826 67.8316 233.146 67.7336C233.549 67.6097 233.973 67.5712 234.392 67.6204L234.359 69.0708C234.076 69.0082 233.78 69.0537 233.529 69.1985C233.297 69.3511 233.113 69.5665 233 69.8192C232.868 70.0919 232.745 70.3791 232.628 70.6895C232.497 71.017 232.334 71.3308 232.14 71.6264C231.949 71.933 231.695 72.196 231.395 72.398L234.976 77.2917H233.096L229.962 72.9927H229.105V77.2917L227.518 77.2714Z"
      fill="#F6BF52"
    />
<path
      d="M237.271 77.2714V67.6552H238.859V74.6026L242.874 67.6552H244.61V77.2714H243.02V70.2717L238.982 77.2714H237.271Z"
      fill="#F6BF52"
    />
<path
      d="M247.725 77.2714V67.6552H249.327V74.6027L253.341 67.6552H255.078V77.2714H253.49V70.2718L249.438 77.2714H247.725ZM248.815 64.4324H250.143C250.129 64.5814 250.152 64.7316 250.21 64.8697C250.268 65.0077 250.359 65.1295 250.476 65.2244C250.759 65.387 251.085 65.4627 251.412 65.4419C251.732 65.4616 252.052 65.387 252.33 65.2273C252.445 65.131 252.534 65.0081 252.59 64.8696C252.646 64.731 252.667 64.5809 252.651 64.4324H254.069C254.044 65.9795 253.158 66.7531 251.412 66.7531C249.698 66.7512 248.833 65.9776 248.815 64.4324Z"
      fill="#F6BF52"
    />
<path
      d="M263.479 73.7469V70.9999C263.479 69.768 263.793 68.8726 264.423 68.3137C265.052 67.7568 265.958 67.4783 267.133 67.4783C267.626 67.4702 268.117 67.5248 268.595 67.6408C268.993 67.7393 269.366 67.918 269.692 68.1658C270.022 68.4297 270.274 68.7776 270.42 69.1724C270.606 69.6714 270.705 70.1981 270.712 70.7301L269.198 70.7446C269.191 70.4322 269.135 70.1229 269.031 69.8279C268.95 69.6046 268.802 69.4112 268.607 69.2739C268.419 69.1481 268.207 69.0604 267.984 69.0157C267.701 68.9673 267.415 68.9449 267.128 68.949C266.828 68.9428 266.53 68.9681 266.236 69.0244C266.005 69.073 265.788 69.1721 265.601 69.3145C265.402 69.479 265.259 69.701 265.192 69.9498C265.095 70.2942 265.051 70.6511 265.06 71.0086V73.7498C265.052 74.113 265.096 74.4754 265.192 74.826C265.259 75.0826 265.398 75.315 265.593 75.4961C265.777 75.6541 265.995 75.7682 266.23 75.8297C266.524 75.8995 266.825 75.9317 267.128 75.9254C267.428 75.9314 267.729 75.9071 268.025 75.8529C268.251 75.8074 268.464 75.7144 268.651 75.5802C268.844 75.4327 268.987 75.2303 269.06 75.0001C269.155 74.675 269.202 74.3378 269.198 73.9993H270.712C270.695 75.264 270.412 76.1536 269.864 76.668C269.317 77.1824 268.404 77.4396 267.128 77.4396C265.853 77.4396 264.925 77.1496 264.344 76.5694C263.763 75.9892 263.475 75.0484 263.479 73.7469Z"
      fill="#F6BF52"
    />
<path
      d="M273.434 75.0291C273.383 74.6438 273.418 74.252 273.537 73.8818C273.656 73.5116 273.857 73.1723 274.124 72.8883C274.746 72.2723 275.565 71.8916 276.44 71.8121C277.221 71.7192 278.007 71.6708 278.794 71.667V70.7214C278.829 70.2376 278.682 69.758 278.382 69.3754C278.11 69.0853 277.627 68.92 276.937 68.92C276.523 68.8899 276.113 69.0152 275.788 69.271C275.528 69.5059 275.399 69.9294 275.405 70.5444H273.85C273.817 69.4943 274.069 68.7198 274.601 68.2238C275.133 67.7277 275.934 67.487 276.987 67.487C278.095 67.487 278.94 67.7452 279.516 68.2557C280.092 68.7662 280.393 69.5901 280.393 70.7272V77.2656H278.978L278.841 75.9544C278.625 76.371 278.287 76.7136 277.873 76.9378C277.411 77.2096 276.883 77.3501 276.346 77.3439C275.961 77.3491 275.577 77.3052 275.203 77.2134C274.914 77.1437 274.64 77.026 274.39 76.8653C274.186 76.7234 274.011 76.5431 273.876 76.3344C273.747 76.1436 273.648 75.9342 273.583 75.7136C273.514 75.4901 273.464 75.2611 273.434 75.0291ZM275.039 74.826C275.044 74.9823 275.088 75.1348 275.168 75.2697C275.248 75.4046 275.36 75.5173 275.496 75.5976C275.804 75.7656 276.153 75.8478 276.504 75.8355C276.881 75.8454 277.254 75.771 277.598 75.6179C277.89 75.4836 278.137 75.268 278.308 74.9971C278.483 74.7208 278.612 74.418 278.688 74.1008C278.774 73.7315 278.82 73.3542 278.826 72.9753C278.071 72.9543 277.316 73.0087 276.572 73.1377C275.441 73.3891 274.93 73.9558 275.039 74.8376V74.826Z"
      fill="#F6BF52"
    />
<path
      d="M282.878 75.7833H283.556C284.115 75.2845 284.514 74.6339 284.702 73.9123C284.887 73.0733 284.97 72.2152 284.948 71.3567L285.053 67.6378H290.723V75.7833H291.869V79.0554H290.354V77.254H284.393V79.0554H282.878V75.7833ZM285.416 75.7833H289.167V69.1114H286.585L286.536 71.3624C286.541 72.3562 286.425 73.347 286.188 74.3126C286.037 74.851 285.774 75.3521 285.416 75.7833Z"
      fill="#F6BF52"
    />
<path
      d="M69.2165 87.8738C77.5992 87.488 98.8469 84.6829 98.8469 77.721C98.8469 70.7591 80.1342 69.213 80.1342 69.213C72.5321 47.6485 78.8652 5.58692 78.8652 5.58692C49.726 -6.98223 20.4874 5.58692 20.4874 5.58692C30.6215 43.2973 20.7651 68.4327 20.7651 68.4327C21.5107 70.324 32.6945 72.0645 32.6945 72.0645C24.8001 73.3205 16.2945 70.2747 16.2945 70.2747C16.2945 70.2747 0.4092 69.9846 0.0174027 77.2366C-0.508893 87.0065 35.6885 88.1639 35.6885 88.1639C33.0571 83.3283 38.32 79.3658 38.32 79.3658C32.1799 67.1824 41.5363 52.0983 42.9982 48.6173C44.4601 45.1364 43.8754 40.5908 43.583 40.0107C43.2906 39.4305 37.8317 36.434 36.3697 32.2742L36.3435 32.1901C33.712 32.9066 31.3729 34.766 31.3729 34.766C32.6565 33.0836 35.1739 31.8507 36.1505 31.4243C36.0822 31.0015 36.0577 30.5728 36.0774 30.1451C33.0357 30.4267 30.0793 31.2979 27.3759 32.7094C29.5981 30.6527 34.8289 29.5185 36.168 29.2284C36.1943 29.0689 36.2236 28.9093 36.2587 28.7498C33.5746 28.1377 29.0075 28.5467 29.0075 28.5467C31.7793 27.6765 34.902 27.8215 36.4575 27.9666C37.3142 25.0658 39.2907 22.5885 39.2907 22.5885C38.0247 18.7188 40.1678 13.6917 40.1678 13.6917C42.7028 14.6606 45.6267 17.6571 45.6267 17.6571C48.0623 16.8826 52.3516 17.4628 52.3516 17.4628C56.3456 11.8555 59.6613 12.5314 59.6613 12.5314C60.6349 21.1961 59.5443 26.2928 57.8339 29.826C60.3981 29.6896 65.6464 29.7128 69.7895 31.6825C69.7895 31.6825 63.0383 30.0261 57.2403 30.9515C57.1234 31.1545 57.0064 31.3547 56.8865 31.5316C59.5999 31.8449 67.851 33.011 71.5321 35.9147C66.6207 33.7822 61.2881 32.7749 55.9304 32.9675C55.7696 33.1909 55.6058 33.4085 55.445 33.6202C57.0765 34.3251 61.5851 36.4514 63.5617 39.1636C63.5617 39.1636 59.8075 35.9118 54.7375 34.5224C53.2463 36.3673 51.8516 37.9366 51.1762 40.1064C49.1295 46.6825 55.1702 52.9685 64.9184 62.4425C74.6666 71.9165 71.4707 81.7154 71.4707 81.7154C66.9855 81.2455 55.1702 80.1374 51.4686 89.71C47.767 99.2826 58.6145 105.435 62.2869 107.817C67.7692 111.37 63.0909 115.504 66.1142 116.58C69.6696 117.845 71.3012 113.969 71.4971 110.863C71.693 107.756 70.0819 104.214 65.5032 101.798C60.9244 99.3813 57.024 95.9003 57.6087 92.6108C58.1935 89.3213 60.825 88.2596 69.2165 87.8738Z"
      fill="#F6BF52"
    />
<path
      d="M42.1678 30.0667C41.9836 32.1756 45.1911 33.3737 45.1911 33.3737C45.9247 33.1021 46.5819 32.6602 47.108 32.0849C47.634 31.5095 48.0133 30.8175 48.2143 30.0667C46.2538 29.4063 44.1283 29.4063 42.1678 30.0667Z"
      fill="#F6BF52"
    />
</g>
<defs>
<clipPath id="clip0_21_231">
<rect width="303" height="116.824" fill="white" />
</clipPath>
</defs>
</svg>
