<svg
  width="876"
  height="823"
  viewBox="0 0 876 823"
  fill="none"
  xmlns="http://www.w3.org/2000/svg"
>
<path
    fill-rule="evenodd"
    clip-rule="evenodd"
    d="M526.747 709.82C603.179 735.219 657.783 834.107 737.395 821.973C807.694 811.258 882.145 727.669 869.456 657.585C850.323 551.904 662.241 522.542 663.74 415.147C664.864 334.706 848.897 380.638 874.389 304.348C892.327 250.663 755.135 272.752 727.895 223.15C692.158 158.075 777.244 33.8771 709.399 3.91248C640.121 -26.6857 602.431 132.173 526.747 134.309C454.373 136.352 411.828 -21.9346 348.986 14.0854C283.319 51.7247 401.971 188.821 344.881 238.552C269.136 304.532 126.61 210.127 49.7212 274.767C-7.24027 322.655 -21.3041 452.458 39.5998 495.201C132.723 560.557 279.469 444.324 376.327 503.984C432.962 538.869 334.863 647.522 374.134 701.26C404.611 742.965 477.774 693.547 526.747 709.82Z"
    fill="#F8F7F1"
  />
</svg>
