<svg
  width="568"
  height="593"
  viewBox="0 0 568 593"
  fill="none"
  xmlns="http://www.w3.org/2000/svg"
>
<path
    fill-rule="evenodd"
    clip-rule="evenodd"
    d="M484.014 27.05C528.724 82.6711 464.634 165.035 462.182 236.356C461.173 265.685 461.966 295.278 473.866 322.103C497.354 375.047 585.591 412.971 564.459 466.899C545.071 516.377 461.257 477.23 409.096 487.395C375.957 493.853 344.843 502.818 313.665 515.773C259.424 538.309 216.468 597.322 157.998 591.725C101.357 586.303 50.8848 539.363 25.9278 488.228C1.21858 437.601 28.0553 378.413 26.4055 322.103C24.6958 263.748 -24.634 192.153 16.0259 150.261C61.1345 103.785 145.045 156.906 206.523 136.527C268.859 115.863 407.719 -67.8637 484.014 27.05Z"
    fill="#FEF2EF"
  />
</svg>
