<svg width="630" height="661" viewBox="0 0 630 661" fill="none" xmlns="http://www.w3.org/2000/svg">
<path fill-rule="evenodd" clip-rule="evenodd" d="M368.372 652.984C432.244 622.365 410.324 521.125 438.77 456.215C450.468 429.523 463.89 403.368 486.054 384.456C529.8 347.129 624.987 351.028 629.26 293.678C633.18 241.059 541.422 240.153 499.151 208.674C472.295 188.675 448.327 167.299 426.015 142.325C387.199 98.8762 374.142 27.6101 319.459 7.5375C266.485 -11.9076 201.191 8.46716 156.909 43.5439C113.066 78.2722 111.635 142.779 85.9684 192.489C59.3706 244.003 -15.4937 286.943 2.86438 341.895C23.2311 402.859 121.078 391.296 167.292 435.917C214.151 481.161 259.38 705.233 368.372 652.984Z" fill="#F8F7F1"/>
</svg>
