<svg width="705" height="665" viewBox="0 0 705 665" fill="none" xmlns="http://www.w3.org/2000/svg">
<path fill-rule="evenodd" clip-rule="evenodd" d="M549.234 388.995C593.329 344.15 681.47 339.888 700.329 279.901C716.982 226.932 683.943 145.982 630.419 130.768C549.707 107.825 464.447 229.581 389.628 191.584C333.586 163.124 429.079 49.907 384.327 5.79139C352.836 -25.2526 321.163 78.5258 277.003 80.5588C219.068 83.2259 161.2 -19.1496 116.855 18.1048C71.5728 56.1468 170.05 137.218 145.528 191.012C122.078 242.454 -3.58315 217.827 0.0784236 274.274C3.90461 333.259 140.868 297.24 156.124 354.371C176.366 430.171 61.1423 497.613 80.0508 573.753C94.0589 630.161 180.277 684.674 231.2 656.681C309.061 613.88 277.979 471.017 353.13 423.638C397.072 395.935 439.562 502.085 490.76 493.041C530.493 486.022 520.982 417.73 549.234 388.995Z" fill="#EFF2F7"/>
</svg>
