<svg
  width="90"
  height="60"
  viewBox="0 0 90 60"
  fill="none"
  xmlns="http://www.w3.org/2000/svg"
>
<path
    fill-rule="evenodd"
    clip-rule="evenodd"
    d="M88.7695 0.14209C87.9739 0.289158 1.21989 16.216 1.21989 16.216C-3.29259 17.8074 10.4321 22.8078 12.1349 23.649L22.8625 28.9529C23.6861 32.9364 29.0564 59.1172 29.5571 59.6048C29.9089 59.9499 30.344 59.9361 30.8231 59.6693L30.8488 59.7035L49.9001 46.0362C57.2729 51.5543 67.1773 58.934 67.5782 59.0042C71.1729 59.6481 79.1876 30.2331 79.3 29.9331L89.899 1.50157L89.8641 1.48961C90.1494 0.755735 89.6487 0.0881307 88.7734 0.170836L88.7695 0.14209ZM34.8825 54.303C36.1925 51.9552 37.2072 49.7274 37.2752 49.6178L42.855 40.749C43.9193 41.5484 45.853 43.0023 48.1945 44.7559L34.8825 54.303ZM24.9126 28.876L83.0136 4.71232L41.9465 38.4929L41.9563 38.5042C41.1277 39.522 33.7927 51.2809 30.7288 56.2006C29.3914 49.865 25.8731 33.2171 24.9126 28.876ZM44.519 39.0012L86.6851 4.32039L67.277 56.3844L55.7685 47.8235C55.6526 47.739 48.5975 41.1812 44.519 39.0012ZM79.7649 3.86187L23.7147 27.1744C20.4718 25.2853 9.81123 20.1356 4.64986 17.6525L79.7649 3.86187Z"
    fill="#2F2B27"
  />
</svg>
