<svg
  width="1328"
  height="1283"
  viewBox="0 0 1328 1283"
  fill="none"
  xmlns="http://www.w3.org/2000/svg"
>
<path
    fill-rule="evenodd"
    clip-rule="evenodd"
    d="M151.477 268.815C260.421 209.974 375.817 255.607 496.727 229.039C654.329 194.409 928.016 -142.612 1106.48 69.7581C1195.82 176.081 965.916 471.498 1033.72 592.707C1079.55 674.63 1147.69 633.581 1249.26 713.938C1350.83 794.295 1344.49 945.207 1279.8 1012.11C1139.43 1157.29 1108.49 1001.75 994.65 1065.87C920.728 1107.5 945.114 1254.86 864.341 1280.78C782.635 1307.01 761.587 1067.3 675.797 1067.49C484.37 1067.92 272.259 1498.57 97.1896 1115.68C54.3607 1022.01 148.728 913.406 129.682 812.168C92.5013 614.538 -155.202 434.452 151.477 268.815Z"
    fill="#F8F7F1"
  />
</svg>
