<svg
  width="26"
  height="24"
  viewBox="0 0 26 24"
  fill="none"
  xmlns="http://www.w3.org/2000/svg"
>
<path
    fill-rule="evenodd"
    clip-rule="evenodd"
    d="M11.4817 3.48256C9.25149 8.03728 9.02318 7.56039 4.30904 8.21065C1.23471 8.63477 0.551239 9.59261 2.97822 11.4977C5.75047 13.6742 6.64178 13.9978 5.9766 17.7318C5.88826 18.2314 4.95961 22.366 6.02033 22.223C8.56408 21.8793 10.8222 18.1832 13.8727 19.3949C15.8666 20.186 19.9807 24.2675 20.1157 21.6466C20.3268 17.5559 17.4266 15.4216 21.9134 12.7475C25.645 10.5238 25.266 9.9682 21.0771 8.90633C17.5147 8.00314 16.6155 7.60839 15.2477 4.25168C14.5627 2.57021 13.6753 0.0740716 12.0108 2.528L11.4817 3.48256ZM11.0381 3.27134C11.4089 2.60462 11.8742 1.58301 12.5926 1.1938C14.3665 0.231524 15.3182 3.11581 15.7115 4.08124C17.5259 8.53586 18.9665 7.52434 22.9608 8.9225C26.7256 10.2405 24.5674 11.7304 22.1675 13.1606C19.134 14.9685 19.8185 16.0802 20.396 19.3783C21.3592 24.8776 18.7988 23.0463 15.4435 20.8367C10.9972 17.9085 10.9794 21.0111 6.53018 22.5989C4.34396 23.3792 5.11149 19.6699 5.28945 18.6762C6.05864 14.3656 6.02921 14.5124 2.6696 11.8737C-0.154857 9.65607 0.759073 8.2169 4.24603 7.73536C8.79352 7.1056 8.89052 7.65737 11.0381 3.27134Z"
    stroke="#2F2B27"
  />
</svg>
