<svg
  width="175"
  height="134"
  viewBox="0 0 175 134"
  fill="none"
  xmlns="http://www.w3.org/2000/svg"
>
<path
    d="M31.2937 1.71484C28.8498 4.71118 25.4395 6.98588 22.6723 9.67248C17.1629 15.0215 12.2466 21.1763 7.91137 27.5061C-0.432933 39.6896 0.194865 48.8519 13.1478 57.2057C22.825 63.447 33.7834 67.6538 44.9836 70.178C49.7889 71.2609 58.2274 73.8198 62.8802 70.5959C66.0611 68.3919 66.5725 63.1692 65.2995 59.7959C64.0675 56.5312 58.1975 60.1126 56.2122 60.7836C48.7587 63.3026 43.7317 64.5744 40.0643 72.2634C38.0266 76.5357 37.3019 80.5043 40.5847 84.406C49.6196 95.1448 65.7739 101.338 78.4521 106.038C97.4741 113.089 117.386 117.14 137.642 118.044C144.092 118.332 150.256 118.422 156.45 116.954M143.29 109.856C145.612 113.988 151.49 116.311 156.007 116.447C157.993 116.507 163.744 114.8 161.902 115.547C157.754 117.227 153.901 119.67 149.944 121.791C148.516 122.557 147.059 123.434 146.338 124.915M162.871 100.136C160.773 97.6198 157.495 96.1608 155.874 93.198M173.224 89.4972C173.004 87.9922 172.962 86.3843 173.178 84.8767M171.795 125.842C171.214 127.862 170.744 129.811 170.447 131.881"
    stroke="#2F2B27"
    stroke-width="3"
    stroke-linecap="round"
  />
</svg>
