<svg
  width="899"
  height="843"
  viewBox="0 0 899 843"
  fill="none"
  xmlns="http://www.w3.org/2000/svg"
>
<path
    fill-rule="evenodd"
    clip-rule="evenodd"
    d="M540.577 727.07C619.016 753.086 675.054 854.377 756.756 841.948C828.9 830.973 905.306 745.352 892.284 673.565C872.649 565.316 679.628 535.241 681.167 425.236C682.32 342.84 871.186 389.887 897.347 311.744C915.756 256.755 774.961 279.38 747.006 228.572C710.331 161.916 797.651 34.7003 728.025 4.00747C656.928 -27.3343 618.249 135.385 540.577 137.573C466.303 139.665 422.641 -22.4677 358.149 14.4276C290.757 52.9816 412.526 193.41 353.936 244.349C276.202 311.932 129.934 215.234 51.0267 281.444C-7.43037 330.496 -21.8634 463.453 40.6396 507.235C136.208 574.179 286.806 455.121 386.207 516.232C444.33 551.964 343.655 663.257 383.958 718.302C415.235 761.02 490.319 710.401 540.577 727.07Z"
    fill="#F8F7F1"
  />
</svg>
