<svg
  width="131"
  height="106"
  viewBox="0 0 131 106"
  fill="none"
  xmlns="http://www.w3.org/2000/svg"
>
<path
    fill-rule="evenodd"
    clip-rule="evenodd"
    d="M38.7704 94.511C31.1236 97.1145 23.5764 99.5649 15.8962 102.236C13.3524 103.118 2.37969 107.685 0.367439 105.143C-1.80484 102.4 6.29474 89.6694 7.93144 86.8195C10.0791 83.0809 19.186 67.0163 21.4405 64.7843C23.7137 62.535 33.0448 56.326 36.2706 53.9866C57.0053 38.9601 77.6132 23.1042 98.6123 8.54671C107.157 2.62239 115.707 -4.50278 125.423 3.72623C130.955 8.41362 132.146 15.7746 127.772 21.5712C120.869 30.7262 88.8786 56.4985 78.1941 65.244C70.5335 71.5136 48.0804 90.1993 40.6267 93.7336L38.7704 94.511ZM25.2564 64.4206C29.5988 64.6436 31.9349 66.1875 31.3077 70.3436L39.536 64.2081C49.528 56.7536 59.5201 49.2991 69.5121 41.8446C72.3662 39.7152 70.9418 40.7784 73.7959 38.6489C78.0798 35.4533 82.3582 32.2606 86.6421 29.0649L90.926 25.8693L92.8057 24.4657L96.2554 21.8912C93.9539 20.3847 91.4752 19.5776 88.3755 19.1308C88.0955 19.0899 87.8099 19.0519 87.519 19.0169C70.7614 31.0539 54.1942 43.6567 37.5416 55.7244C35.1209 57.4798 28.893 61.6595 25.2564 64.4206ZM90.0067 17.2356C94.8196 18.1426 98.3763 20.0846 102.018 24.1371C106.049 28.6221 107.496 32.7839 107.356 38.2071C109.476 36.3729 111.533 34.5658 113.471 32.824C113.508 32.5571 113.538 32.2973 113.572 32.043C114.003 28.5857 114.064 26.1172 112.387 22.6305C109.435 16.4849 104.177 13.5898 97.9034 12.3738C97.6354 12.3227 97.3633 12.2704 97.0929 12.2278C94.7251 13.8802 92.365 15.5531 90.0067 17.2356ZM105.087 40.1617C105.114 39.8826 105.135 39.6067 105.157 39.3306C105.348 36.5406 105.138 34.1386 104.353 31.878L101.033 34.3676C80.7646 49.5623 60.5005 64.7583 40.2321 79.953C41.4367 80.0777 42.6354 80.3783 43.3856 80.7617C46.6496 82.4405 46.8964 85.0125 46.2027 87.6646C56.3973 80.6564 70.5289 68.7529 76.8402 63.5866C82.4686 58.9766 94.2957 49.4132 105.087 40.1617ZM43.2143 89.6455L43.2295 89.609L43.7359 88.4548C45.7798 83.2925 42.0693 81.1279 37.3498 82.4749C37.2552 82.5019 37.1716 82.5229 37.0837 82.5428C35.648 82.865 35.4473 82.1005 35.7047 80.9554C36.0806 79.2804 37.4409 76.7823 37.3312 75.6756C37.0287 72.5454 31.9258 73.721 30.2757 74.4177C30.213 74.4448 30.1461 74.4708 30.0846 74.4938C28.7226 74.9697 27.8788 74.2355 28.3767 72.8922C28.4109 72.8066 28.4395 72.7239 28.4695 72.6371C30.4694 67.0794 28.6239 66.3073 23.171 66.5427C23.023 66.5495 22.875 66.5562 22.7228 66.5618C20.9272 68.6912 14.4388 79.4702 9.20057 88.9073C15.1342 90.8343 16.8773 93.111 17.9643 99.253C24.6788 96.9505 31.3072 94.7868 38.0169 92.5011C39.4289 91.9169 41.2023 90.9239 43.2143 89.6455ZM99.5241 10.5301C105.935 12.0275 111.261 15.3295 114.323 21.7076C115.918 25.034 116.141 27.5627 115.874 30.6447C120.51 26.4001 124.221 22.7136 126.061 20.2783C131.336 13.2881 126.467 4.50979 118.693 2.41773C112.331 0.706973 104.899 6.80218 99.8401 10.3083L99.5241 10.5301ZM98.0394 23.2328L94.1748 26.1184L92.2073 27.5874L87.9236 30.7831C82.2154 35.042 76.5071 39.3009 70.7935 43.5627C67.9394 45.6922 65.0854 47.8216 62.2313 49.9511C59.3772 52.0805 60.8015 51.0173 57.9474 53.1467C49.7463 59.2673 41.5465 65.3837 33.3412 71.5031C35.5298 71.3054 37.7079 71.7833 38.9286 73.8024C39.7121 75.1017 39.5728 76.6227 39.1216 78.1027C59.2982 62.9722 79.4737 47.8458 99.6541 32.7166L103.477 29.8504C102.742 28.4332 101.748 27.0407 100.457 25.6065C99.6451 24.6997 98.848 23.9155 98.0394 23.2328ZM15.9128 99.9639C15.861 99.6579 15.8098 99.3649 15.7591 99.086C14.8716 94.3367 13.5589 92.6321 8.96967 91.0848C8.70856 90.9947 8.4324 90.9094 8.14782 90.8216C4.55913 97.3807 1.81417 102.912 2.05739 103.812C3.49935 104.388 13.5866 100.773 15.1867 100.216L15.9128 99.9639Z"
    fill="#2F2B27"
  />
</svg>
