<svg
  width="684"
  height="675"
  viewBox="0 0 684 675"
  fill="none"
  xmlns="http://www.w3.org/2000/svg"
>
<path
    fill-rule="evenodd"
    clip-rule="evenodd"
    d="M361.184 49.3253C403.985 68.6661 421.36 123.654 465.01 140.995C520.405 163.002 593.82 122.006 639.752 159.995C683.235 195.959 686.365 264.535 682.441 320.826C678.627 375.527 653.174 426.984 618.195 469.212C586.061 508.005 532.468 517.9 493.132 549.366C444.922 587.93 422.92 674.669 361.184 674.799C299.499 674.929 278.545 586.557 228.915 549.924C186.509 518.624 129.158 513.66 92.0969 476.184C49.3152 432.924 -12.8907 379.728 2.35201 320.826C19.0699 256.225 128.046 263.273 162.053 205.858C195.419 149.524 132.586 54.503 184.061 14.0401C232.21 -23.8089 305.373 24.1055 361.184 49.3253Z"
    fill="#EFF2F7"
  />
</svg>
